<svg width="49" height="49" viewBox="0 0 49 49" fill="none" xmlns="http://www.w3.org/2000/svg">
<path d="M48.3046 31.9778C47.5433 30.6716 46.2384 29.7786 44.7737 29.5183C44.4791 28.8325 44.0381 28.215 43.4772 27.7157C42.1238 26.5098 40.2126 26.1095 38.4892 26.671C37.7564 26.9098 37.0999 27.3033 36.538 27.8412L29.2392 34.8338C29.286 34.5601 29.3106 34.2806 29.3106 33.9977C29.3106 31.2798 27.0993 29.0686 24.3815 29.0686H19.2232C18.0504 27.035 15.9113 25.7898 13.538 25.7898C10.1587 25.7898 7.36824 28.3551 7.00943 31.6405H0.717807C0.32129 31.6405 0 31.9619 0 32.3583V46.5517C0 46.9481 0.32129 47.2695 0.717807 47.2695H7.68264C7.68417 47.2695 7.6857 47.2697 7.68723 47.2697H12.7338C13.1303 47.2697 13.4516 46.9483 13.4516 46.5518C13.4516 46.1554 13.1303 45.834 12.7338 45.834H8.40514V32.3582C8.40514 32.3578 8.40504 32.3574 8.40504 32.357C8.40571 29.5273 10.7081 27.2253 13.538 27.2253C15.5119 27.2253 17.2784 28.3278 18.1482 30.1023C18.2688 30.3483 18.5188 30.5042 18.7927 30.5042H24.3816C26.3079 30.5042 27.875 32.0714 27.875 33.9976C27.875 35.046 27.4101 36.0297 26.5992 36.6969C26.586 36.7078 26.5733 36.7191 26.5609 36.7309C26.0451 37.2211 25.3701 37.491 24.6597 37.491H15.4895C15.093 37.491 14.7717 37.8124 14.7717 38.2088C14.7717 38.6052 15.093 38.9266 15.4895 38.9266H24.6597C25.6328 38.9266 26.5616 38.5926 27.3093 37.982C27.543 37.9646 28.2443 38.0356 28.4498 37.9108L42.2911 31.2409C42.7952 30.9979 43.3313 30.8747 43.8849 30.8747C45.1897 30.8747 46.4079 31.5744 47.0645 32.7008C47.5851 33.5933 47.7073 34.6295 47.4085 35.6183C47.1098 36.6069 46.4345 37.4016 45.5071 37.8562L32.1539 44.4037C30.2443 45.3394 28.1123 45.834 25.9884 45.834H15.6032C15.2067 45.834 14.8854 46.1554 14.8854 46.5518C14.8854 46.9483 15.2067 47.2697 15.6032 47.2697H25.9884C28.33 47.2697 30.6804 46.7244 32.7857 45.6928L46.1388 39.1454C47.4095 38.5226 48.3732 37.3883 48.7826 36.0338C49.192 34.6788 49.0178 33.2004 48.3046 31.9778ZM1.43561 33.076H6.96952V45.8338H1.43561V33.076ZM41.6676 29.9478L31.098 35.0412L37.5309 28.8781C37.9356 28.4909 38.4076 28.2075 38.9339 28.0361C40.1736 27.6321 41.5485 27.9202 42.5224 28.7878C42.7579 28.9974 42.9637 29.236 43.137 29.4959C42.6308 29.5709 42.1386 29.7208 41.6676 29.9478Z" fill="#C9283D"/>
<path d="M22.2699 22.1985C22.7071 22.928 23.4912 23.371 24.3329 23.3709C24.3652 23.3709 24.3976 23.3702 24.4299 23.3688L27.9525 23.2302C28.8337 23.196 29.6238 22.6836 30.014 21.8937L34.8788 12.0798C35.0549 11.7247 34.9096 11.294 34.5545 11.1179C34.1994 10.9418 33.7686 11.0871 33.5925 11.4422L28.7272 21.257C28.5699 21.5755 28.2517 21.7818 27.8964 21.7956L24.3727 21.9344C24.0186 21.9492 23.6851 21.7671 23.5018 21.4612L18.5327 13.1492C18.2579 12.689 18.4084 12.0912 18.8685 11.8164L21.3755 10.3183C21.5985 10.1848 21.8598 10.1462 22.111 10.2093C22.3625 10.2726 22.5745 10.4303 22.7079 10.6535L25.2298 14.8714C25.3646 15.0967 25.6139 15.2314 25.8741 15.2203C26.1365 15.21 26.3723 15.0571 26.489 14.8218L31.6678 4.37328C31.7831 4.14061 31.9819 3.96681 32.2278 3.88402C32.4736 3.80133 32.7372 3.81923 32.9707 3.93513L35.5872 5.23053C36.0673 5.46923 36.2643 6.05362 36.0263 6.53349L34.8682 8.87067C34.6922 9.22585 34.8376 9.65653 35.1927 9.83254C35.5483 10.0086 35.9786 9.86326 36.1547 9.50799L37.3126 7.1711C37.9019 5.98289 37.4146 4.53569 36.2252 3.94451L33.6085 2.64901C33.0321 2.36284 32.379 2.31825 31.7695 2.52363C31.1601 2.72893 30.6671 3.15951 30.3816 3.73596L25.787 13.0057L23.9402 9.91695C23.6099 9.36453 23.0847 8.97385 22.4612 8.81717C21.8375 8.6605 21.1904 8.75611 20.6389 9.0863L18.1323 10.584C16.9928 11.2647 16.6196 12.7457 17.3006 13.8857L22.2699 22.1985Z" fill="#C9283D"/>
<path d="M15.4747 18.65C14.8412 17.5524 13.4529 17.129 12.3143 17.686L9.84072 18.8966C9.24044 19.1903 8.7843 19.7255 8.58935 20.3647C8.39449 21.0039 8.47431 21.7025 8.80842 22.2812L9.12378 22.8275C9.45789 23.4062 10.023 23.8246 10.6741 23.9755C10.8535 24.017 11.0357 24.0374 11.2176 24.0374C11.6956 24.0374 12.1694 23.896 12.5713 23.6258L14.8563 22.0889C15.908 21.3815 16.2354 19.9675 15.6017 18.8699L15.4747 18.65ZM14.055 20.8977L11.77 22.4346C11.5409 22.5886 11.2665 22.639 10.998 22.5769C10.7291 22.5146 10.505 22.3487 10.367 22.1097L10.0517 21.5634C9.91375 21.3245 9.88207 21.0475 9.96246 20.7835C10.043 20.5196 10.2238 20.3073 10.4717 20.186L12.9453 18.9756C13.0833 18.908 13.2304 18.8759 13.3757 18.8759C13.718 18.8759 14.0504 19.0543 14.2314 19.3679L14.3583 19.5878C14.6162 20.0344 14.4829 20.6098 14.055 20.8977Z" fill="#C9283D"/>
<path d="M6.63063 14.9688C7.07902 15.3875 7.67403 15.6201 8.28426 15.6201C8.33882 15.6201 8.39366 15.6182 8.44831 15.6145L11.1958 15.426C12.4603 15.3393 13.4508 14.2785 13.4508 13.0109V12.7571C13.4508 11.4896 12.4603 10.4287 11.1958 10.342L8.44831 10.1536C7.78247 10.1077 7.11902 10.3433 6.63053 10.7994C6.14204 11.2556 5.862 11.9003 5.862 12.5687V13.1994C5.862 13.8678 6.14214 14.5128 6.63063 14.9688ZM7.29761 12.5688C7.28393 12.0141 7.7995 11.5345 8.35011 11.5859L11.0975 11.7744C11.6121 11.8097 12.0152 12.2414 12.0152 12.7572V13.011C12.0152 13.5269 11.6121 13.9585 11.0976 13.9939L8.35011 14.1823C7.79778 14.233 7.2846 13.7544 7.29761 13.1995V12.5688Z" fill="#C9283D"/>
<path d="M9.84063 6.8715L12.3142 8.08191C12.6535 8.24787 13.0148 8.32683 13.3719 8.32683C14.213 8.32683 15.0298 7.88849 15.4747 7.11795L15.6016 6.89811C16.2354 5.80034 15.9079 4.38636 14.8562 3.67908L12.5712 2.14211C12.0166 1.76914 11.3253 1.64156 10.674 1.79249C10.0229 1.94323 9.45789 2.36166 9.12378 2.9405L8.80842 3.4867C8.47431 4.06545 8.39449 4.76402 8.58935 5.40325C8.78421 6.04258 9.24035 6.57768 9.84063 6.8715ZM10.0516 4.20451L10.3669 3.65831C10.634 3.17164 11.3141 3.01267 11.7699 3.33338L14.0549 4.87035C14.483 5.15814 14.6161 5.73363 14.3583 6.1803L14.2314 6.40014C13.9736 6.84681 13.4086 7.01927 12.9453 6.79245L10.4717 5.58203C9.96763 5.34956 9.76301 4.67884 10.0516 4.20451Z" fill="#C9283D"/>
<path d="M39.7533 22.0891L42.0384 23.626C42.4402 23.8962 42.9138 24.0376 43.3921 24.0376C43.5738 24.0376 43.7563 24.0172 43.9356 23.9757C44.5867 23.8249 45.1518 23.4065 45.4858 22.8278L45.8012 22.2815C46.1354 21.7027 46.2152 21.0041 46.0203 20.3649C45.8254 19.7257 45.3692 19.1905 44.7689 18.8968L42.2954 17.6863C41.1568 17.1292 39.7686 17.5526 39.1349 18.6503L39.008 18.8701C38.3742 19.9676 38.7016 21.3816 39.7533 22.0891ZM40.2512 19.588L40.3781 19.3681C40.5592 19.0545 40.8915 18.8761 41.2338 18.8761C41.3791 18.8761 41.5262 18.9082 41.6642 18.9758L44.1378 20.1862C44.6418 20.4187 44.8465 21.0894 44.5579 21.5636L44.2425 22.1099C43.9761 22.5969 43.293 22.7551 42.8396 22.4348L40.5545 20.8979C40.1266 20.6099 39.9932 20.0346 40.2512 19.588Z" fill="#C9283D"/>
<path d="M41.1588 12.757V13.0109C41.1588 14.2784 42.1493 15.3392 43.4138 15.4259L46.1611 15.6144C46.2158 15.6181 46.2706 15.62 46.3251 15.62C46.9355 15.62 47.5306 15.3874 47.9789 14.9687C48.4674 14.5126 48.7475 13.8677 48.7475 13.1994V12.5687C48.7475 11.9004 48.4674 11.2555 47.979 10.7994C47.4904 10.3433 46.8285 10.1077 46.1611 10.1536L43.4137 10.3421C42.1492 10.4287 41.1588 11.4895 41.1588 12.757ZM46.2594 11.5858C46.8101 11.5343 47.3257 12.014 47.312 12.5686V13.1993C47.3244 13.7544 46.813 14.2327 46.2594 14.1821L43.5121 13.9937C42.9975 13.9584 42.5944 13.5267 42.5944 13.0109V12.757C42.5944 12.2412 42.9975 11.8095 43.5121 11.7742L46.2594 11.5858Z" fill="#C9283D"/>
<path d="M39.1348 7.11791C39.5797 7.88854 40.3964 8.32688 41.2377 8.32679C41.5946 8.32679 41.9562 8.24783 42.2954 8.08187L44.7689 6.87136C45.3692 6.57764 45.8253 6.04244 46.0203 5.40321C46.2152 4.76398 46.1353 4.06541 45.8012 3.48666L45.4858 2.94046C45.1518 2.36172 44.5867 1.94328 43.9357 1.79245C43.2842 1.64161 42.5931 1.76909 42.0385 2.14207L39.7533 3.67904C38.7015 4.38651 38.3741 5.80049 39.0079 6.89806L39.1348 7.11791ZM40.5544 4.87031L42.8396 3.33344C43.2953 3.01262 43.9754 3.17159 44.2424 3.65836L44.5579 4.20457C44.6958 4.44355 44.7275 4.72053 44.6471 4.98449C44.5665 5.24845 44.3857 5.46073 44.1378 5.58199L41.6643 6.7924C41.2008 7.01923 40.6359 6.84677 40.3781 6.4001L40.2512 6.18026C39.9932 5.73359 40.1265 5.1582 40.5544 4.87031Z" fill="#C9283D"/>
</svg>
