<svg width="53" height="53" viewBox="0 0 53 53" fill="none" xmlns="http://www.w3.org/2000/svg">
<path d="M4.02387 15.4456H12.2117C12.6405 15.4456 12.9881 15.0981 12.9881 14.6692C12.9881 14.2403 12.6405 13.8928 12.2117 13.8928H4.02387C3.5951 13.8928 3.2475 14.2403 3.2475 14.6692C3.2475 15.0981 3.595 15.4456 4.02387 15.4456Z" fill="#C9283D"/>
<path d="M11.931 19.1831H8.69656C8.2678 19.1831 7.9202 19.5306 7.9202 19.9595C7.9202 20.3883 8.2678 20.7358 8.69656 20.7358H11.931C12.3598 20.7358 12.7074 20.3883 12.7074 19.9595C12.7074 19.5306 12.3598 19.1831 11.931 19.1831Z" fill="#C9283D"/>
<path d="M0.776367 24.5669H8.69656C9.12532 24.5669 9.47292 24.2194 9.47292 23.7905C9.47292 23.3617 9.12532 23.0142 8.69656 23.0142H0.776367C0.347605 23.0142 0 23.3617 0 23.7905C0 24.2194 0.347605 24.5669 0.776367 24.5669Z" fill="#C9283D"/>
<path d="M12.9881 38.3306C12.9881 37.9017 12.6405 37.5542 12.2117 37.5542H4.02387C3.5951 37.5542 3.2475 37.9017 3.2475 38.3306C3.2475 38.7594 3.5951 39.1069 4.02387 39.1069H12.2117C12.6405 39.1069 12.9881 38.7594 12.9881 38.3306Z" fill="#C9283D"/>
<path d="M11.931 32.2639H8.69656C8.2678 32.2639 7.9202 32.6114 7.9202 33.0403C7.9202 33.4691 8.2678 33.8167 8.69656 33.8167H11.931C12.3598 33.8167 12.7074 33.4691 12.7074 33.0403C12.7074 32.6114 12.3598 32.2639 11.931 32.2639Z" fill="#C9283D"/>
<path d="M9.47292 29.2092C9.47292 28.7804 9.12532 28.4329 8.69656 28.4329H0.776367C0.347605 28.4329 0 28.7804 0 29.2092C0 29.6381 0.347605 29.9856 0.776367 29.9856H8.69656C9.12532 29.9856 9.47292 29.6381 9.47292 29.2092Z" fill="#C9283D"/>
<path d="M33.0762 17.166C33.5051 17.166 33.8526 16.8185 33.8526 16.3896V15.2046C33.8526 14.7757 33.5051 14.4282 33.0762 14.4282C32.6474 14.4282 32.2999 14.7757 32.2999 15.2046V16.3896C32.2999 16.8185 32.6474 17.166 33.0762 17.166Z" fill="#C9283D"/>
<path d="M41.6122 17.9639C41.3089 17.6608 40.8174 17.6608 40.5142 17.9639L39.6763 18.8019C39.3731 19.1052 39.3731 19.5966 39.6763 19.8998C39.9797 20.203 40.4711 20.2029 40.7743 19.8998L41.6122 19.0619C41.9153 18.7587 41.9153 18.2672 41.6122 17.9639Z" fill="#C9283D"/>
<path d="M43.1866 25.7236C42.7578 25.7236 42.4103 26.0711 42.4103 26.5C42.4103 26.9289 42.7578 27.2764 43.1866 27.2764H44.3716C44.8004 27.2764 45.1479 26.9289 45.1479 26.5C45.1479 26.0711 44.8004 25.7236 44.3716 25.7236H43.1866Z" fill="#C9283D"/>
<path d="M40.7743 33.0999C40.471 32.7968 39.9795 32.7968 39.6763 33.0999C39.3731 33.4032 39.3731 33.8947 39.6763 34.1979L40.5142 35.0358C40.8176 35.339 41.309 35.3389 41.6122 35.0358C41.9154 34.7325 41.9154 34.241 41.6122 33.9378L40.7743 33.0999Z" fill="#C9283D"/>
<path d="M32.2999 36.6104V37.7953C32.2999 38.2242 32.6474 38.5717 33.0762 38.5717C33.5051 38.5717 33.8526 38.2242 33.8526 37.7953V36.6104C33.8526 36.1815 33.5051 35.834 33.0762 35.834C32.6474 35.834 32.2999 36.1816 32.2999 36.6104Z" fill="#C9283D"/>
<path d="M25.3781 33.0999L24.5401 33.9378C24.2369 34.2411 24.2369 34.7326 24.5401 35.0358C24.8434 35.339 25.3349 35.3389 25.638 35.0358L26.476 34.1979C26.7792 33.8946 26.7792 33.4031 26.476 33.0999C26.1729 32.7968 25.6813 32.7968 25.3781 33.0999Z" fill="#C9283D"/>
<path d="M21.7808 25.7236C21.352 25.7236 21.0044 26.0711 21.0044 26.5C21.0044 26.9289 21.352 27.2764 21.7808 27.2764H22.9658C23.3946 27.2764 23.7422 26.9289 23.7422 26.5C23.7422 26.0711 23.3946 25.7236 22.9658 25.7236H21.7808Z" fill="#C9283D"/>
<path d="M26.4761 18.8019L25.6382 17.9639C25.335 17.6608 24.8434 17.6608 24.5403 17.9639C24.2371 18.2672 24.2371 18.7587 24.5403 19.0619L25.3782 19.8998C25.6815 20.203 26.173 20.2029 26.4761 19.8998C26.7793 19.5966 26.7793 19.1052 26.4761 18.8019Z" fill="#C9283D"/>
<path d="M37.251 26.5C37.251 26.0711 36.9035 25.7236 36.4747 25.7236H33.8526V19.9595C33.8526 19.5306 33.5051 19.1831 33.0762 19.1831C32.6474 19.1831 32.2999 19.5306 32.2999 19.9595V26.5C32.2999 26.9289 32.6474 27.2764 33.0762 27.2764H36.4747C36.9034 27.2764 37.251 26.9289 37.251 26.5Z" fill="#C9283D"/>
<path d="M47.7974 26.3717C48.2254 26.3457 48.5513 25.9778 48.5253 25.5498C48.0314 17.4028 41.2454 11.021 33.0761 11.021C24.5411 11.021 17.5972 17.9648 17.5972 26.5C17.5972 35.0351 24.5411 41.9789 33.0761 41.9789C40.7227 41.9789 47.2474 36.3764 48.3825 28.8162C48.4461 28.3922 48.154 27.9968 47.7299 27.9332C47.3069 27.8697 46.9106 28.1615 46.8469 28.5857C45.8273 35.3778 39.9625 40.4262 33.0761 40.4262C25.3972 40.4262 19.15 34.179 19.15 26.5001C19.15 18.8212 25.3972 12.5738 33.0761 12.5738C40.4258 12.5738 46.5311 18.3149 46.9754 25.644C47.0013 26.0717 47.3689 26.3966 47.7974 26.3717Z" fill="#C9283D"/>
<path d="M33.0761 6.57617C30.3453 6.57617 27.6697 7.14271 25.2071 8.2022H11.509C11.0802 8.2022 10.7326 8.5497 10.7326 8.97856C10.7326 9.40743 11.0802 9.75493 11.509 9.75493H22.2863C20.8291 10.6928 19.4876 11.824 18.3049 13.13C18.0171 13.4476 18.0413 13.9386 18.3591 14.2265C18.677 14.5144 19.1678 14.49 19.4558 14.1723C22.9341 10.3316 27.8986 8.12891 33.0761 8.12891C43.206 8.12891 51.4473 16.3701 51.4473 26.4999C51.4473 36.6297 43.2061 44.871 33.0761 44.871C22.9463 44.871 14.7051 36.6298 14.7051 26.4999C14.7051 22.9527 15.7184 19.5097 17.6353 16.5432C17.868 16.183 17.7647 15.7025 17.4046 15.4698C17.0445 15.2372 16.564 15.3403 16.3311 15.7006C14.2515 18.9187 13.1524 22.653 13.1524 26.4999C13.1524 33.5148 16.7968 39.6938 22.2913 43.2449H11.5091C11.0803 43.2449 10.7327 43.5924 10.7327 44.0213C10.7327 44.4502 11.0803 44.7977 11.5091 44.7977H25.1964C27.6146 45.8431 30.2787 46.4237 33.0762 46.4237C44.0622 46.4237 53 37.4859 53 26.4999C53 15.5139 44.0622 6.57617 33.0761 6.57617Z" fill="#C9283D"/>
</svg>
