<svg width="44" height="44" viewBox="0 0 44 44" fill="none" xmlns="http://www.w3.org/2000/svg">
<path d="M24.4467 4.95276H21.9756C21.5367 4.95276 21.1796 5.30983 21.1796 5.7488V8.71407C21.1796 9.15296 21.5366 9.51003 21.9756 9.51003H24.4467C24.8856 9.51003 25.2428 9.15296 25.2428 8.71399V5.7488C25.2428 5.30992 24.8857 4.95276 24.4467 4.95276ZM23.9855 8.25285H22.4367V6.20994H23.9855V8.25285Z" fill="#D31C33"/>
<path d="M29.36 4.95276H26.8889C26.45 4.95276 26.0929 5.30983 26.0929 5.7488V8.71407C26.0929 9.15296 26.4499 9.51003 26.8889 9.51003H29.36C29.7989 9.51003 30.156 9.15296 30.156 8.71399V5.7488C30.156 5.30992 29.7989 4.95276 29.36 4.95276ZM28.8987 8.25285H27.35V6.20994H28.8987V8.25285Z" fill="#D31C33"/>
<path d="M34.2733 4.95276H31.8021C31.3632 4.95276 31.0062 5.30983 31.0062 5.7488V8.71407C31.0062 9.15296 31.3632 9.51003 31.8021 9.51003H34.2733C34.7121 9.51003 35.0693 9.15296 35.0693 8.71399V5.7488C35.0693 5.30992 34.7122 4.95276 34.2733 4.95276ZM33.8121 8.25285H32.2633V6.20994H33.8121V8.25285Z" fill="#D31C33"/>
<path d="M24.4467 12.3164H21.9756C21.5367 12.3164 21.1796 12.6735 21.1796 13.1124V16.0777C21.1796 16.5167 21.5366 16.8738 21.9756 16.8738H24.4467C24.8856 16.8738 25.2428 16.5167 25.2428 16.0777V13.1124C25.2428 12.6736 24.8857 12.3164 24.4467 12.3164ZM23.9855 15.6167H22.4367V13.5738H23.9855V15.6167Z" fill="#D31C33"/>
<path d="M29.36 12.3164H26.8889C26.45 12.3164 26.0929 12.6735 26.0929 13.1124V16.0777C26.0929 16.5167 26.4499 16.8738 26.8889 16.8738H29.36C29.7989 16.8738 30.156 16.5167 30.156 16.0777V13.1124C30.156 12.6736 29.7989 12.3164 29.36 12.3164ZM28.8987 15.6167H27.35V13.5738H28.8987V15.6167Z" fill="#D31C33"/>
<path d="M34.2733 12.3164H31.8021C31.3632 12.3164 31.0062 12.6735 31.0062 13.1124V16.0777C31.0062 16.5167 31.3632 16.8738 31.8021 16.8738H34.2733C34.7121 16.8738 35.0693 16.5167 35.0693 16.0777V13.1124C35.0693 12.6736 34.7122 12.3164 34.2733 12.3164ZM33.8121 15.6167H32.2633V13.5738H33.8121V15.6167Z" fill="#D31C33"/>
<path d="M24.4467 19.6802H21.9756C21.5367 19.6802 21.1796 20.0372 21.1796 20.4762V23.4415C21.1796 23.8804 21.5366 24.2375 21.9756 24.2375H24.4467C24.8856 24.2375 25.2428 23.8805 25.2428 23.4415V20.4762C25.2428 20.0373 24.8857 19.6802 24.4467 19.6802ZM23.9855 22.9803H22.4367V20.9374H23.9855V22.9803Z" fill="#D31C33"/>
<path d="M29.36 19.6802H26.8889C26.45 19.6802 26.0929 20.0372 26.0929 20.4762V23.4415C26.0929 23.8804 26.4499 24.2375 26.8889 24.2375H29.36C29.7989 24.2375 30.156 23.8805 30.156 23.4415V20.4762C30.156 20.0373 29.7989 19.6802 29.36 19.6802ZM28.8987 22.9803H27.35V20.9374H28.8987V22.9803Z" fill="#D31C33"/>
<path d="M34.2733 19.6802H31.8021C31.3632 19.6802 31.0062 20.0372 31.0062 20.4762V23.4415C31.0062 23.8804 31.3632 24.2375 31.8021 24.2375H34.2733C34.7121 24.2375 35.0693 23.8805 35.0693 23.4415V20.4762C35.0693 20.0373 34.7122 19.6802 34.2733 19.6802ZM33.8121 22.9803H32.2633V20.9374H33.8121V22.9803Z" fill="#D31C33"/>
<path d="M34.2733 27.0438H31.8021C31.3632 27.0438 31.0062 27.4009 31.0062 27.8398V30.805C31.0062 31.2439 31.3632 31.6011 31.8021 31.6011H34.2733C34.7121 31.6011 35.0693 31.244 35.0693 30.805V27.8398C35.0693 27.4009 34.7122 27.0438 34.2733 27.0438ZM33.8121 30.3438H32.2633V28.301H33.8121V30.3438Z" fill="#D31C33"/>
<path d="M42.5021 29.8451C41.6966 28.6612 40.0744 28.3478 38.8868 29.1459L37.1585 30.3025V3.26245H37.2838C37.7389 3.26245 38.1091 2.89223 38.1091 2.4371V0.825344C38.1091 0.370219 37.7389 0 37.2838 0H33.2698C32.9227 0 32.6413 0.281445 32.6413 0.628547C32.6413 0.975648 32.9227 1.25709 33.2698 1.25709H36.852V2.00518H19.203V1.25709H29.3336C29.6808 1.25709 29.9622 0.975648 29.9622 0.628547C29.9622 0.281445 29.6807 0 29.3336 0H18.7712C18.316 0 17.9458 0.370219 17.9458 0.825344V2.4371C17.9458 2.89223 18.316 3.26245 18.7712 3.26245H19.0903V11.3364H17.7996V9.78484C17.7996 9.24464 17.3601 8.80516 16.82 8.80516H12.0739C11.5337 8.80516 11.0942 9.24464 11.0942 9.78484V11.3363H10.191C9.62964 11.3363 9.17297 11.7929 9.17297 12.3543V26.7699C8.9069 26.7529 8.64007 26.7438 8.37263 26.7438H7.38194V26.4171C7.38194 25.1976 6.38979 24.2054 5.17017 24.2054H3.25901C2.03947 24.2054 1.04723 25.1976 1.04723 26.4171V35.3933C1.04723 35.7405 1.32868 36.0218 1.67578 36.0218C2.02288 36.0218 2.30433 35.7404 2.30433 35.3933V26.4171C2.30433 25.8908 2.73255 25.4626 3.25892 25.4626H5.17008C5.69645 25.4626 6.12468 25.8908 6.12468 26.4171V40.5604C6.12468 41.0867 5.69645 41.5149 5.17008 41.5149H3.25901C2.73264 41.5149 2.30441 41.0867 2.30441 40.5604V39.3271C2.30441 38.98 2.02297 38.6986 1.67587 38.6986C1.32876 38.6986 1.04732 38.98 1.04732 39.3271V40.5604C1.04732 41.78 2.03947 42.7721 3.25909 42.7721H5.17026C6.38979 42.7721 7.38203 41.7799 7.38203 40.5604V40.5246L16.086 43.8206C16.1031 43.8271 16.1203 43.8328 16.1379 43.8377C16.5203 43.9458 16.9025 44 17.2813 44C17.4872 44 17.6921 43.9839 17.8954 43.9519C17.8956 43.9519 17.8961 43.9518 17.8967 43.9517L30.7444 42.0998C30.7476 42.0993 30.7507 42.0988 30.7538 42.0983C31.8521 41.9229 32.8881 41.4587 33.75 40.7559C33.7578 40.7495 33.7655 40.7429 33.773 40.7361L42.077 33.2675C43.0555 32.3984 43.2383 30.9272 42.5021 29.8451ZM20.3475 3.26245H35.9014V31.1439L30.6714 34.6441L28.918 34.5457L28.8733 34.0967C28.8405 33.767 28.7666 33.4498 28.6566 33.1505C28.6199 33.0507 28.5793 32.9529 28.5349 32.8573C28.4681 32.7138 28.3928 32.5753 28.3095 32.4423C28.1126 32.128 27.8712 31.8448 27.5936 31.6011H29.3601C29.799 31.6011 30.1561 31.244 30.1561 30.8051V27.8398C30.1561 27.4009 29.799 27.0438 29.3601 27.0438H26.889C26.4501 27.0438 26.093 27.4009 26.093 27.8398V30.791C25.9342 30.7472 25.7712 30.7129 25.6044 30.6892C25.5991 30.6885 25.5936 30.6878 25.5882 30.6872L25.2428 30.6474V27.8397C25.2428 27.4008 24.8857 27.0437 24.4467 27.0437H21.9756C21.5367 27.0437 21.1796 27.4007 21.1796 27.8397V30.1796L20.3475 30.0839V3.26245ZM27.35 30.3439V28.3011H28.8987V30.3439H27.35ZM23.9855 28.301V30.3439H22.6056L22.4367 30.3245V28.301H23.9855ZM12.3514 10.0623H16.5424V11.3363H12.3514V10.0623ZM10.43 12.5935H19.0903V14.5592H11.9914C11.585 14.5592 11.2544 14.8898 11.2544 15.2962V17.1941C11.2544 17.6005 11.585 17.9311 11.9914 17.9311H19.0903V19.6995H11.9914C11.585 19.6995 11.2544 20.0301 11.2544 20.4365V22.3344C11.2544 22.7408 11.585 23.0714 11.9914 23.0714H19.0903V24.8398H11.9914C11.585 24.8398 11.2544 25.1704 11.2544 25.5768V27.0775C11.1476 27.0527 11.0405 27.0295 10.9329 27.0073C10.8822 26.9968 10.8315 26.9869 10.7806 26.977C10.7211 26.9655 10.6614 26.9546 10.6017 26.944C10.5444 26.9337 10.4874 26.9227 10.43 26.9132V12.5935ZM19.0903 15.8164V16.6739H12.5116V15.8164H19.0903ZM19.0903 20.9566V21.8142H12.5116V20.9566H19.0903ZM12.5116 26.9546V26.097H19.0903V26.9546H12.5116ZM19.0903 28.2117V29.9392L18.8967 29.9168C18.4906 29.8591 18.0904 29.7794 17.6966 29.6796C16.933 29.4862 16.1938 29.215 15.4852 28.8667C15.3911 28.8203 15.2976 28.7724 15.2046 28.7233C15.0526 28.6433 14.9021 28.5602 14.7531 28.4731C14.6435 28.4089 14.5328 28.3472 14.4217 28.2865C14.3976 28.2734 14.3736 28.2604 14.3494 28.2475C14.3273 28.2356 14.3053 28.2234 14.2832 28.2117H19.0903ZM41.2393 32.3301L32.944 39.7908C32.2571 40.3477 31.4333 40.7158 30.5601 40.8561L17.7122 42.708C17.7094 42.7084 17.6977 42.7103 17.695 42.7107C17.3106 42.7714 16.9102 42.7459 16.5045 42.6349L7.38194 39.1803V28.0011H8.37255C8.82836 28.0011 9.28236 28.0301 9.73259 28.0844C9.82403 28.0954 9.91512 28.1075 10.006 28.1206C10.0193 28.1225 10.0324 28.1246 10.0456 28.1266C10.2753 28.1606 10.5029 28.2019 10.7287 28.2494C10.7989 28.2642 10.8692 28.2792 10.9392 28.2954C10.9741 28.3034 11.0089 28.3119 11.0438 28.3203C11.135 28.3423 11.226 28.3651 11.3167 28.3895C11.333 28.3938 11.3494 28.398 11.3657 28.4025C12.0759 28.5961 12.7674 28.8587 13.4295 29.187C13.4492 29.1968 13.4689 29.2068 13.4886 29.2168C13.5728 29.2591 13.6564 29.3028 13.7396 29.3472C13.7649 29.3608 13.7904 29.3741 13.8157 29.3879C13.9158 29.4424 14.0154 29.4981 14.1139 29.5558C14.1154 29.5567 14.1169 29.5574 14.1183 29.5583C14.3855 29.7145 14.6571 29.8605 14.9328 29.9961C16.1277 30.5834 17.4006 30.975 18.7284 31.1628C18.7339 31.1636 18.7392 31.1643 18.7446 31.1649L19.647 31.2688L20.382 31.3534L22.0769 31.5486L22.4975 31.5971C22.4976 31.5971 22.4977 31.5971 22.4977 31.5971L25.4356 31.9353C26.6064 32.1044 27.5051 33.0434 27.6222 34.2213L27.644 34.4403L15.8619 33.292C15.5153 33.2582 15.209 33.5112 15.1753 33.8567C15.1417 34.2023 15.3944 34.5097 15.74 34.5434L28.2303 35.7607C28.2565 35.7656 28.2831 35.7695 28.3104 35.771L30.8109 35.9113C30.8227 35.912 30.8345 35.9123 30.8461 35.9123C30.8586 35.9123 30.8708 35.9103 30.8833 35.9095C30.8975 35.9086 30.9117 35.9081 30.9258 35.9063C30.9439 35.904 30.9616 35.9 30.9793 35.8962C30.9933 35.8932 31.0073 35.8908 31.0209 35.8868C31.0398 35.8813 31.0581 35.8739 31.0764 35.8666C31.088 35.8621 31.0998 35.8585 31.1111 35.8532C31.1403 35.8396 31.1687 35.824 31.1957 35.8059L36.8796 32.0021L36.8796 32.002L39.587 30.1901C40.2034 29.7759 41.0449 29.9384 41.4627 30.5524C41.8446 31.1136 41.7498 31.8767 41.2393 32.3301Z" fill="#D31C33"/>
</svg>
