<svg width="44" height="44" viewBox="0 0 44 44" fill="none" xmlns="http://www.w3.org/2000/svg">
<g clip-path="url(#clip0)">
<path d="M43.3554 29.3391C43.7115 29.3391 44 29.0505 44 28.6946V23.0751C44 14.9274 37.3714 8.29886 29.2238 8.29886H22.6245L16.112 1.78646C15.6376 1.312 15.0068 1.05066 14.3358 1.05066C13.6648 1.05066 13.034 1.312 12.5595 1.78646C12.0851 2.26093 11.8237 2.89171 11.8237 3.56272C11.8237 3.99705 11.9338 4.41428 12.1397 4.78347C9.35961 7.10096 6.66502 9.56103 4.12555 12.1061C1.63119 14.6057 0.171017 17.9269 0.0140081 21.4579C-0.141884 24.966 0.996367 28.3822 3.21916 31.077C3.3466 31.2315 3.53094 31.3115 3.71674 31.3115C3.86111 31.3115 4.00644 31.2632 4.12649 31.1642C4.40106 30.9376 4.44008 30.5314 4.21355 30.2568C2.19426 27.8085 1.16016 24.7039 1.30196 21.5151C1.44462 18.3062 2.77151 15.288 5.03812 13.0166C7.55474 10.4944 10.2254 8.0566 12.981 5.76033L30.6253 23.4047C28.3349 26.1543 25.8974 28.8249 23.3699 31.3475C21.0679 33.6444 18.0083 34.973 14.7548 35.0885C11.5183 35.204 8.38773 34.1119 5.94151 32.0148C5.67123 31.7832 5.2644 31.8144 5.03271 32.0847C4.80102 32.3549 4.83222 32.7618 5.10258 32.9935C7.66637 35.1915 10.9115 36.3859 14.2906 36.3859C14.4601 36.3859 14.6305 36.3829 14.8006 36.3769C18.3805 36.2497 21.7472 34.7877 24.2805 32.2601C26.8311 29.7144 29.291 27.0196 31.603 24.2453C31.9811 24.4552 32.402 24.5609 32.8232 24.5609C33.2453 24.5609 33.6671 24.4548 34.0459 24.244V38.251C34.0459 38.8428 34.2764 39.3986 34.6937 39.8147C35.1111 40.2334 35.667 40.4639 36.2588 40.4639C37.4785 40.4639 38.4708 39.4712 38.4708 38.251V33.1153C38.4708 32.9446 38.5371 32.7844 38.6592 32.6628C38.7792 32.5423 38.9397 32.4759 39.111 32.4759C39.4637 32.4759 39.7503 32.7627 39.7503 33.1153V40.8248C39.7503 41.3913 39.9709 41.9246 40.373 42.3281C40.7749 42.7286 41.3082 42.9492 41.8747 42.9492C43.0467 42.9492 44 41.9962 44 40.8248V31.2728C44 30.9168 43.7115 30.6283 43.3554 30.6283C42.9994 30.6283 42.7109 30.9168 42.7109 31.2728V40.8248C42.7109 41.2855 42.3358 41.6601 41.8747 41.6601C41.6517 41.6601 41.4416 41.5731 41.2846 41.4166C41.1265 41.258 41.0394 41.0477 41.0394 40.8248V33.1153C41.0394 32.0519 40.1744 31.1869 39.111 31.1869C38.5945 31.1869 38.1098 31.3879 37.7477 31.7512C37.3828 32.1149 37.1817 32.5993 37.1817 33.1153V38.251C37.1817 38.7604 36.7677 39.1748 36.2588 39.1748C36.012 39.1748 35.7804 39.0788 35.6053 38.9032C35.431 38.7294 35.3349 38.4978 35.3349 38.251V22.0551C35.3349 22.0526 35.3342 22.0507 35.3341 22.0482C35.3336 21.4055 35.0888 20.7631 34.5996 20.2738L23.9136 9.58793H29.2238C36.6606 9.58793 42.7109 15.6382 42.7109 23.0751V28.6946C42.7109 29.0505 42.9994 29.3391 43.3554 29.3391ZM33.6879 22.9149C33.2111 23.3917 32.4353 23.3917 31.9584 22.9149L13.471 4.42743C12.9942 3.95056 12.9942 3.17471 13.471 2.69792C13.7094 2.45953 14.0225 2.34033 14.3358 2.34033C14.6489 2.34033 14.9621 2.45953 15.2006 2.69792L33.6879 21.1853C34.1648 21.6621 34.1648 22.438 33.6879 22.9149Z" fill="#D31C33"/>
</g>
<defs>
<clipPath id="clip0">
<rect width="44" height="44" fill="white"/>
</clipPath>
</defs>
</svg>
