<svg width="44" height="44" viewBox="0 0 44 44" fill="none" xmlns="http://www.w3.org/2000/svg">
<g clip-path="url(#clip0)">
<path d="M37.7242 35.382C36.4697 35.382 35.449 36.4026 35.449 37.6572C35.449 38.9117 36.4696 39.9323 37.7242 39.9323C38.9788 39.9323 39.9994 38.9117 39.9994 37.6572C39.9994 36.4026 38.9788 35.382 37.7242 35.382ZM37.7242 38.5839C37.2132 38.5839 36.7974 38.1681 36.7974 37.6572C36.7974 37.1462 37.2132 36.7304 37.7242 36.7304C38.2351 36.7304 38.6509 37.1462 38.6509 37.6572C38.6509 38.1681 38.2351 38.5839 37.7242 38.5839Z" fill="#D31C33"/>
<path d="M43.8542 37.5392C43.8112 35.8735 43.1062 34.3414 41.8688 33.2253L28.2948 20.9822L40.2967 8.98038C40.3756 8.95683 40.4535 8.92753 40.5287 8.88782L43.1277 7.51609C43.4868 7.32651 43.7276 6.9874 43.7882 6.58599C43.8488 6.18449 43.719 5.78952 43.4319 5.50214L40.5055 2.57588C40.2183 2.28877 39.8236 2.15891 39.4218 2.21959C39.0204 2.28017 38.6813 2.52097 38.4917 2.8801L37.1199 5.47894C37.0798 5.55482 37.049 5.63328 37.0254 5.71295L31.3604 11.378C31.0971 11.6413 31.0971 12.0681 31.3604 12.3315C31.6238 12.5947 32.0506 12.5947 32.314 12.3315L37.5125 7.13289L38.8749 8.49526L25.5803 21.7898L24.218 20.4274L30.0209 14.6246C30.2842 14.3612 30.2842 13.9344 30.0209 13.671C29.7575 13.4079 29.3307 13.4079 29.0673 13.671L24.8569 17.8814L20.2746 13.7484C21.5738 10.0087 20.6329 5.84804 17.8146 3.02981C14.9279 0.143077 10.5973 -0.776884 6.78185 0.686374C6.56864 0.768187 6.41129 0.952265 6.36385 1.17562C6.31641 1.39897 6.38508 1.63117 6.54655 1.79265L11.8396 7.0858C11.9962 7.24238 12.0826 7.4506 12.0826 7.67207C12.0826 7.89353 11.9963 8.10175 11.8396 8.25842L8.4022 11.6958C8.24562 11.8525 8.0374 11.9388 7.81594 11.9388C7.59447 11.9388 7.38625 11.8526 7.22958 11.6958L1.93644 6.40268C1.77487 6.24121 1.54284 6.17254 1.3194 6.21998C1.09605 6.2675 0.911975 6.42477 0.830162 6.63798C-0.633095 10.4533 0.286866 14.7838 3.17368 17.6707C5.9229 20.4199 10.003 21.3878 13.6837 20.1985L17.2267 24.0728C17.0564 24.4055 16.8351 24.7157 16.5621 24.9887C15.5408 26.01 14.0101 26.3318 12.6622 25.8086C12.4131 25.7116 12.1304 25.7713 11.9414 25.9603L3.6863 34.2153C1.45158 36.4501 1.45158 40.0863 3.6863 42.321C4.76902 43.4039 6.20839 44 7.73937 44C9.27026 44 10.7097 43.4039 11.7923 42.3213L20.0473 34.0663C20.2362 33.8773 20.2958 33.5946 20.199 33.3455C19.6757 31.9976 19.9975 30.4668 21.0187 29.4455C22.0401 28.4243 23.5709 28.1025 24.9187 28.6257C25.168 28.7226 25.4505 28.6628 25.6395 28.474L27.1967 26.9168C27.6656 26.448 27.9238 25.8245 27.9238 25.1615C27.9238 24.4985 27.6656 23.875 27.1967 23.4061L26.5339 22.7433L27.3402 21.9369L40.9658 34.2266C41.9259 35.0926 42.4731 36.2815 42.5063 37.574C42.5396 38.8665 42.0544 40.0819 41.1401 40.9961C40.2302 41.9062 39.0179 42.3905 37.7339 42.3627C36.4473 42.334 35.2605 41.7952 34.3921 40.8455L24.261 29.7669C24.0095 29.492 23.5832 29.473 23.3085 29.7243C23.0338 29.9757 23.0147 30.4021 23.266 30.6769L33.3969 41.7555C34.5162 42.9793 36.0457 43.6737 37.7037 43.7108C37.7501 43.7118 37.7964 43.7123 37.8428 43.7123C39.4488 43.7123 40.9536 43.0893 42.0936 41.9496C43.2718 40.7713 43.897 39.205 43.8542 37.5392ZM38.3409 6.05429L39.6316 3.60902L42.3987 6.37613L39.9535 7.66682L38.3409 6.05429ZM14.3794 18.9612C14.1938 18.7584 13.9038 18.6884 13.6462 18.7845C10.3494 20.0142 6.61264 19.2028 4.12707 16.7175C1.87018 14.4605 0.995678 11.1885 1.76628 8.13965L6.27602 12.6494C6.6874 13.0607 7.23422 13.2871 7.81585 13.2871C8.39748 13.2871 8.94429 13.0607 9.35559 12.6494L12.793 9.21198C13.2043 8.8006 13.4307 8.25378 13.4307 7.67215C13.4307 7.09053 13.2043 6.54371 12.793 6.13241L8.28335 1.62249C11.332 0.851546 14.6043 1.7263 16.8611 3.98328C19.4099 6.53193 20.1932 10.3429 18.8568 13.6923C18.7522 13.9544 18.8218 14.2539 19.0314 14.4428L23.9022 18.8361L23.2644 19.474L22.6016 18.8111C22.1327 18.3422 21.5092 18.0841 20.8462 18.0841C20.1832 18.0841 19.5597 18.3422 19.0908 18.8111L17.5337 20.3683C17.3448 20.5573 17.2852 20.84 17.382 21.0892C17.5613 21.5511 17.6391 22.0342 17.6258 22.5112L14.3794 18.9612ZM26.2431 25.9634L24.9813 27.2252C23.2461 26.7249 21.3579 27.1995 20.0653 28.492H20.0652C18.7727 29.7846 18.2981 31.6725 18.7985 33.4081L10.8388 41.3677C10.0109 42.1956 8.91018 42.6516 7.73945 42.6516C6.56872 42.6516 5.46787 42.1956 4.64012 41.3677C2.93108 39.6587 2.93108 36.8779 4.64012 35.1689L12.5997 27.2093C14.3352 27.7098 16.2231 27.2349 17.5158 25.9424C18.8083 24.6498 19.283 22.7618 18.7826 21.0263L20.0444 19.7646C20.4865 19.3224 21.206 19.3224 21.6481 19.7646L22.7877 20.9042L25.1035 23.22L26.2431 24.3596C26.6853 24.8018 26.6853 25.5213 26.2431 25.9634Z" fill="#D31C33"/>
<path d="M13.9499 29.7558C13.6865 29.4925 13.2597 29.4925 12.9963 29.7558L6.60962 36.1425C6.3463 36.4059 6.3463 36.8326 6.60962 37.096C6.74127 37.2276 6.91392 37.2934 7.0864 37.2934C7.25887 37.2934 7.43152 37.2276 7.56318 37.096L13.9499 30.7093C14.2131 30.4459 14.2131 30.0191 13.9499 29.7558Z" fill="#D31C33"/>
<path d="M16.3096 32.1155C16.0463 31.8523 15.6195 31.8523 15.3561 32.1155L8.96939 38.5021C8.70608 38.7655 8.70608 39.1923 8.96939 39.4557C9.10104 39.5873 9.27361 39.6531 9.44617 39.6531C9.61865 39.6531 9.79129 39.5873 9.92295 39.4557L16.3096 33.0691C16.573 32.8057 16.573 32.3789 16.3096 32.1155Z" fill="#D31C33"/>
</g>
<defs>
<clipPath id="clip0">
<rect width="44" height="44" fill="white"/>
</clipPath>
</defs>
</svg>
