<svg width="44" height="44" viewBox="0 0 44 44" fill="none" xmlns="http://www.w3.org/2000/svg">
<g clip-path="url(#clip0)">
<path d="M43.7826 39.8585L42.031 36.8246V26.1816C42.031 25.8246 41.7415 25.5352 41.3845 25.5352C41.0276 25.5352 40.7381 25.8246 40.7381 26.1816V26.9433H37.8886V13.2283H40.7381V23.0476C40.7381 23.4046 41.0276 23.694 41.3845 23.694C41.7415 23.694 42.031 23.4046 42.031 23.0476V13.099C42.031 12.4574 41.509 11.9354 40.8674 11.9354H37.7593C37.1177 11.9354 36.5957 12.4574 36.5957 13.099V36.8246L34.844 39.8585C34.5542 40.3604 34.5543 40.9596 34.844 41.4615C35.1338 41.9634 35.6527 42.2629 36.2322 42.2629H42.3944C42.9739 42.2629 43.4929 41.9634 43.7826 41.4615C44.0724 40.9596 44.0724 40.3604 43.7826 39.8585ZM40.7381 28.2362V36.9978V37.2697C40.7381 37.3748 40.6525 37.4604 40.5474 37.4604H38.0793C37.9742 37.4604 37.8886 37.3748 37.8886 37.2697V36.9978V28.2362H40.7381ZM42.663 40.8151C42.6361 40.8616 42.556 40.9701 42.3945 40.9701H36.2323C36.0708 40.9701 35.9908 40.8616 35.9639 40.8151C35.937 40.7684 35.8831 40.6449 35.9639 40.505L37.1605 38.4324C37.4135 38.6328 37.7324 38.7534 38.0794 38.7534H40.5475C40.8945 38.7534 41.2134 38.6328 41.4664 38.4324L42.663 40.505C42.7437 40.6449 42.6899 40.7684 42.663 40.8151Z" fill="#D31C33"/>
<path d="M34.3641 33.815L27.6678 16.6376C27.3643 15.8593 27.2105 15.041 27.2105 14.2056V3.12624C27.2105 2.36028 26.5873 1.73706 25.8213 1.73706H18.4241C17.6581 1.73706 17.0349 2.36028 17.0349 3.12624V6.54011C17.0349 6.89709 17.3243 7.18653 17.6813 7.18653C18.0383 7.18653 18.3277 6.89709 18.3277 6.54011V3.12624C18.3277 3.07313 18.3709 3.02999 18.424 3.02999H25.8212C25.8743 3.02999 25.9175 3.07313 25.9175 3.12624V14.2056C25.9175 15.2024 26.101 16.1787 26.4631 17.1072L31.5592 30.1797H22.0446C21.6876 30.1797 21.3982 30.4691 21.3982 30.8261C21.3982 31.1831 21.6876 31.4726 22.0446 31.4726H32.0632L33.1595 34.2846C33.757 35.8172 33.5673 37.475 32.6391 38.8331C31.711 40.1911 30.2352 40.97 28.5903 40.97H15.6551C14.0101 40.97 12.5344 40.1912 11.6062 38.8331C10.678 37.4751 10.4883 35.8172 11.0858 34.2847L12.182 31.4726H18.0104V37.0767C18.0104 37.4337 18.2998 37.7231 18.6568 37.7231C19.0138 37.7231 19.3032 37.4337 19.3032 37.0767V33.9171H22.3153C22.6723 33.9171 22.9617 33.6277 22.9617 33.2707C22.9617 32.9137 22.6723 32.6243 22.3153 32.6243H19.3032V29.2763H20.6831C21.0401 29.2763 21.3295 28.9868 21.3295 28.6298C21.3295 28.2728 21.0401 27.9834 20.6831 27.9834H19.3032V24.5834H22.3153C22.6723 24.5834 22.9617 24.2939 22.9617 23.937C22.9617 23.58 22.6723 23.2905 22.3153 23.2905H19.3032V21.6589C19.3032 21.3019 19.0138 21.0125 18.6568 21.0125C18.2998 21.0125 18.0104 21.3019 18.0104 21.6589V30.18H12.6861L17.7822 17.1075C18.1443 16.1789 18.3278 15.2027 18.3278 14.2059V9.54105C18.3278 9.18406 18.0384 8.89462 17.6814 8.89462C17.3244 8.89462 17.035 9.18406 17.035 9.54105V14.2059C17.035 15.0414 16.8812 15.8596 16.5777 16.6379L12.8484 26.2045C11.8608 25.4552 11.2797 24.3177 11.2797 23.094V20.7787C11.2797 20.0128 10.6565 19.3896 9.89056 19.3896H7.2742C6.50824 19.3896 5.88502 20.0128 5.88502 20.7787V23.0942C5.88502 24.4379 5.1885 25.6778 4.02172 26.4109C1.5701 27.951 0.0674803 30.595 0.0022537 33.4834C-0.104567 38.2115 3.65142 42.1489 8.37497 42.2605C8.44286 42.2622 8.51075 42.263 8.57856 42.263C9.91635 42.263 11.2381 41.9507 12.4258 41.3554C13.3844 41.9406 14.4981 42.263 15.6552 42.263H28.5903C30.6383 42.263 32.5509 41.2535 33.7065 39.5627C34.8621 37.8719 35.1079 35.7233 34.3641 33.815ZM4.70957 27.5053C6.25515 26.5342 7.17786 24.885 7.17786 23.0938V20.7784C7.17786 20.7253 7.221 20.6822 7.27411 20.6822H9.89039C9.9435 20.6822 9.98664 20.7253 9.98664 20.7784V23.0936C9.98664 24.8468 10.8734 26.4651 12.364 27.446L9.8812 33.815C9.74825 34.156 9.64753 34.5048 9.57732 34.8571H1.39032C1.31882 34.42 1.28444 33.9709 1.29484 33.5125C1.35027 31.0597 2.62678 28.814 4.70957 27.5053ZM8.40548 40.968C5.31852 40.895 2.72003 38.897 1.72668 36.1501H9.45882C9.47506 37.3521 9.84055 38.541 10.5389 39.5627C10.7594 39.8853 11.0077 40.183 11.279 40.4537C10.3714 40.8146 9.39161 40.9922 8.40548 40.968Z" fill="#D31C33"/>
</g>
<defs>
<clipPath id="clip0">
<rect width="44" height="44" fill="white"/>
</clipPath>
</defs>
</svg>
