<svg width="44" height="44" viewBox="0 0 44 44" fill="none" xmlns="http://www.w3.org/2000/svg">
<path d="M30.8344 18.8857C30.7725 18.7866 30.6863 18.705 30.5841 18.6484C30.4818 18.5919 30.3668 18.5623 30.25 18.5626H22.6875V8.25008C22.6866 8.09613 22.634 7.94695 22.5383 7.82642C22.4425 7.70589 22.309 7.621 22.1593 7.58535C22.0095 7.54969 21.8521 7.56533 21.7123 7.62976C21.5725 7.69419 21.4583 7.80368 21.3881 7.9407L13.1381 24.4407C13.0854 24.5454 13.0603 24.6618 13.0652 24.7789C13.0701 24.8959 13.1048 25.0098 13.1662 25.1097C13.2275 25.2096 13.3133 25.2922 13.4155 25.3495C13.5176 25.4069 13.6328 25.4372 13.75 25.4376H21.3125V35.7501C21.313 35.9045 21.3655 36.0543 21.4615 36.1753C21.5576 36.2963 21.6916 36.3814 21.8419 36.417C21.8935 36.4306 21.9466 36.4375 22 36.4376C22.127 36.4372 22.2513 36.4017 22.3593 36.3349C22.4673 36.2682 22.5547 36.1728 22.6119 36.0595L30.8619 19.5595C30.9151 19.4541 30.9405 19.3369 30.9357 19.219C30.9309 19.1011 30.896 18.9863 30.8344 18.8857ZM22.6875 32.8351V24.7501C22.6875 24.5677 22.6151 24.3929 22.4861 24.2639C22.3572 24.135 22.1823 24.0626 22 24.0626H14.8638L21.3125 11.1651V19.2501C21.3125 19.4324 21.3849 19.6073 21.5139 19.7362C21.6428 19.8651 21.8177 19.9376 22 19.9376H29.1363L22.6875 32.8351Z" fill="#D31C33"/>
<path d="M38.7819 10.0237C39.3044 9.36568 39.5672 8.53868 39.5203 7.6997C39.4734 6.86072 39.1201 6.06816 38.5275 5.47246L36.5819 3.52684C36.4511 3.40265 36.2776 3.33342 36.0972 3.33342C35.9168 3.33342 35.7433 3.40265 35.6125 3.52684L35.1244 4.01496L33.1787 2.06934L32.2094 3.03871L34.155 4.98434L33.1787 5.96059L31.2331 4.01496L30.2638 4.98434L32.2094 6.92996L31.7213 7.41809C31.5932 7.5469 31.5213 7.72115 31.5213 7.90277C31.5213 8.0844 31.5932 8.25865 31.7213 8.38746L33.6669 10.3331C34.1877 10.8582 34.8658 11.1988 35.598 11.3031C36.3302 11.4073 37.0765 11.2695 37.7231 10.9106C40.0279 14.1481 41.2612 18.0259 41.25 22C41.2472 25.1589 40.4677 28.2686 38.9802 31.0554C37.4928 33.8421 35.3429 36.2204 32.72 37.9808C30.0971 39.7412 27.0816 40.8296 23.939 41.1504C20.7964 41.4711 17.6232 41.0142 14.6988 39.82L14.1763 41.0918C17.3096 42.3719 20.7095 42.8618 24.0768 42.5185C27.444 42.1751 30.6751 41.009 33.4856 39.123C36.296 37.2369 38.5996 34.6886 40.1933 31.7027C41.7871 28.7167 42.6222 25.3846 42.625 22C42.6375 17.7027 41.2925 13.5113 38.7819 10.0237ZM37.5581 9.36371C37.1685 9.74705 36.6438 9.96189 36.0972 9.96189C35.5506 9.96189 35.0259 9.74705 34.6363 9.36371L33.1787 7.89934L36.1006 4.98434L37.5581 6.44184C37.9445 6.82991 38.1613 7.35519 38.1613 7.90277C38.1613 8.45035 37.9445 8.97564 37.5581 9.36371Z" fill="#D31C33"/>
<path d="M22 1.37502C16.532 1.38175 11.2898 3.5569 7.42336 7.42338C3.55688 11.2899 1.38173 16.532 1.375 22C1.3625 26.2973 2.70751 30.4887 5.21813 33.9763C4.69555 34.6343 4.43277 35.4613 4.47966 36.3003C4.52655 37.1393 4.87986 37.9318 5.4725 38.5275L7.41813 40.4731C7.48079 40.5371 7.55572 40.5877 7.63841 40.6219C7.72111 40.6562 7.80987 40.6734 7.89938 40.6725C7.98991 40.6734 8.07972 40.6563 8.16353 40.622C8.24735 40.5878 8.32349 40.5372 8.3875 40.4731L8.87563 39.985L10.8213 41.9306L11.7906 40.9613L9.845 39.0156L10.8213 38.0394L12.7669 39.985L13.7363 39.0156L11.7906 37.07L12.2788 36.5819C12.4068 36.4531 12.4787 36.2788 12.4787 36.0972C12.4787 35.9156 12.4068 35.7413 12.2788 35.6125L10.3331 33.6669C9.80928 33.1468 9.13157 32.8097 8.40075 32.7056C7.66994 32.6016 6.92506 32.7362 6.27688 33.0894C3.9721 29.8519 2.73879 25.9741 2.75 22C2.75564 16.8963 4.78557 12.0033 8.39443 8.39445C12.0033 4.78559 16.8963 2.75566 22 2.75002C24.5045 2.7448 26.9855 3.23305 29.3013 4.1869L29.8238 2.90815C27.3407 1.89194 24.6829 1.37112 22 1.37502ZM6.44188 34.6363C6.83152 34.2529 7.35622 34.0381 7.90282 34.0381C8.44941 34.0381 8.97411 34.2529 9.36375 34.6363L10.8213 36.1006L7.89938 39.0156L6.44188 37.5581C6.05555 37.1701 5.83867 36.6448 5.83867 36.0972C5.83867 35.5496 6.05555 35.0243 6.44188 34.6363Z" fill="#D31C33"/>
</svg>
