<svg width="44" height="44" viewBox="0 0 44 44" fill="none" xmlns="http://www.w3.org/2000/svg">
<g clip-path="url(#clip0)">
<path d="M6.71551 37.2843C5.82279 36.3917 4.37019 36.3917 3.4773 37.2844C3.04477 37.7169 2.80664 38.2919 2.80664 38.9035C2.80664 39.5151 3.04477 40.0901 3.4773 40.5225C3.92366 40.9689 4.51001 41.1922 5.09645 41.1922C5.6828 41.1922 6.26915 40.969 6.71551 40.5225C7.60832 39.6298 7.60832 38.1771 6.71551 37.2843ZM5.82743 39.6345C5.63218 39.8297 5.37256 39.9372 5.09645 39.9372C4.82033 39.9372 4.56071 39.8297 4.36546 39.6345C4.17021 39.4392 4.0627 39.1796 4.0627 38.9035C4.0627 38.6274 4.17021 38.3677 4.36546 38.1726C4.56707 37.971 4.83167 37.8703 5.09645 37.8703C5.36113 37.8703 5.62591 37.9711 5.82743 38.1725C6.23048 38.5756 6.23048 39.2314 5.82743 39.6345Z" fill="#D31C33"/>
<path d="M43.7341 15.4364L28.5641 0.26646C28.3868 0.0892569 28.141 -0.00759479 27.8911 0.000741154C27.6405 0.0090771 27.4022 0.121999 27.237 0.310632C25.8271 1.9211 18.5979 10.6134 13.6816 24.7213C13.5311 24.7754 13.3927 24.8613 13.2763 24.9777L12.1362 26.1178C11.9283 26.3256 11.8139 26.602 11.8139 26.896C11.8139 26.9564 11.8199 27.0157 11.8293 27.0742L8.0267 29.9905C7.75152 30.2016 7.69945 30.5958 7.91059 30.8711C8.12166 31.1462 8.51602 31.1983 8.79111 30.9872L12.5592 28.0973L15.9032 31.4413L8.44384 41.1678C7.74345 42.0865 6.68066 42.6578 5.52806 42.7352C4.37633 42.8123 3.24591 42.3884 2.42907 41.5716C1.61224 40.7547 1.18814 39.6252 1.26548 38.4725C1.34282 37.3198 1.91414 36.2571 2.83427 35.5556L5.69495 33.3616C5.97021 33.1506 6.0222 32.7564 5.81114 32.4811C5.60016 32.2059 5.2058 32.1539 4.93063 32.3649L2.07131 34.5578C0.864323 35.4778 0.113831 36.874 0.0121671 38.3883C-0.0894969 39.9025 0.467722 41.3865 1.54082 42.4596C2.53048 43.4494 3.86938 44.0003 5.25942 44.0003C5.37664 44.0003 5.49438 43.9963 5.61211 43.9884C7.12641 43.8867 8.52255 43.1362 9.44148 41.9307L16.9262 32.1712C16.9846 32.1807 17.044 32.1867 17.1044 32.1867C17.3984 32.1867 17.6748 32.0722 17.8827 31.8643L19.0227 30.7243C19.1392 30.6078 19.2251 30.4695 19.2793 30.319C33.3875 25.4025 42.0795 18.1734 43.6897 16.7636C43.8783 16.5985 43.9914 16.3602 43.9997 16.1097C44.008 15.8591 43.9113 15.6137 43.7341 15.4364ZM17.1044 30.8662L13.1343 26.8961L14.0547 25.9757L18.0248 29.9459L17.1044 30.8662ZM41.8378 16.6783L38.8852 13.7257C38.6399 13.4804 38.2423 13.4804 37.997 13.7257C37.7518 13.9709 37.7518 14.3686 37.997 14.6138L40.8453 17.462C37.3062 20.1883 29.761 25.3232 18.9571 29.1018L14.8988 25.0435C18.6773 14.2398 23.8122 6.69433 26.5386 3.15525L35.2278 11.8446C35.3504 11.9672 35.5111 12.0285 35.6718 12.0285C35.8325 12.0285 35.9932 11.9671 36.1159 11.8446C36.3611 11.5993 36.3611 11.2017 36.1159 10.9564L27.3222 2.16267C27.5648 1.86344 27.7727 1.61473 27.94 1.41854L42.5821 16.0606C42.3858 16.2278 42.1371 16.4357 41.8378 16.6783Z" fill="#D31C33"/>
</g>
<defs>
<clipPath id="clip0">
<rect width="44" height="44" fill="white"/>
</clipPath>
</defs>
</svg>
