<svg width="44" height="44" viewBox="0 0 44 44" fill="none" xmlns="http://www.w3.org/2000/svg">
<path d="M1.43 29.9805C1.45406 30.283 1.67337 30.534 1.97037 30.5979L4.36631 31.1149C4.45087 31.5233 4.55812 31.9261 4.68806 32.3194L2.87444 33.9625C2.64963 34.166 2.585 34.4933 2.71563 34.7676C3.047 35.4647 3.41619 36.1089 3.81288 36.6823C3.98475 36.9311 4.29963 37.0384 4.58906 36.9456L6.91763 36.1955C7.19606 36.5076 7.49238 36.804 7.8045 37.0824L7.05444 39.411C6.96162 39.699 7.06819 40.0146 7.31775 40.1871C7.89113 40.5838 8.53531 40.953 9.23244 41.2844C9.50744 41.415 9.834 41.3497 10.0375 41.1256L11.6806 39.312C12.0746 39.4412 12.4774 39.5491 12.8858 39.6337L13.4028 42.0296C13.4668 42.326 13.7177 42.5453 14.0195 42.57C14.3853 42.5989 14.7517 42.625 15.125 42.625C15.4983 42.625 15.8647 42.5989 16.2305 42.57C16.533 42.546 16.7839 42.3266 16.8479 42.0296L17.3649 39.6337C17.7732 39.5491 18.1768 39.4419 18.5701 39.312L20.2132 41.1256C20.4174 41.3504 20.7446 41.4157 21.0182 41.2844C21.7154 40.953 22.3596 40.5831 22.9329 40.1871C23.1825 40.0146 23.2891 39.699 23.1963 39.411L22.4462 37.0824C22.7583 36.804 23.0546 36.5076 23.3331 36.1962L25.6616 36.9463C25.9497 37.0398 26.2653 36.9325 26.4378 36.683C26.8345 36.1096 27.2037 35.4654 27.5351 34.7683C27.6657 34.494 27.6011 34.1667 27.3762 33.9632L25.5626 32.3201C25.6919 31.9261 25.7998 31.5233 25.8844 31.1149L28.2803 30.5979C28.5766 30.534 28.7959 30.283 28.8207 29.9812C28.8489 29.6148 28.875 29.2483 28.875 28.875C28.875 28.5017 28.8489 28.1353 28.82 27.7695C28.7959 27.467 28.5766 27.2161 28.2796 27.1521L25.8837 26.6351C25.7991 26.2268 25.6919 25.8232 25.5619 25.43L27.3756 23.7868C27.6004 23.5833 27.665 23.2561 27.5344 22.9818C27.203 22.2846 26.8331 21.6405 26.4371 21.0671C26.2646 20.8175 25.949 20.7103 25.6609 20.8038L23.3324 21.5538C23.0539 21.2417 22.7576 20.9454 22.4455 20.667L23.1956 18.3384C23.2884 18.0503 23.1818 17.7348 22.9322 17.5622C22.3589 17.1655 21.7147 16.7963 21.0176 16.465C20.7426 16.3336 20.416 16.399 20.2125 16.6238L18.5694 18.4374C18.1754 18.3081 17.7726 18.2002 17.3642 18.1156L16.8472 15.7197C16.7832 15.4234 16.5323 15.2041 16.2305 15.1793C15.4983 15.1202 14.751 15.1216 14.0188 15.1793C13.7163 15.2034 13.4654 15.4227 13.4014 15.7197L12.8844 18.1156C12.4761 18.2002 12.0732 18.3075 11.6799 18.4374L10.0368 16.6238C9.83331 16.399 9.50675 16.3343 9.23175 16.465C8.53463 16.7963 7.89044 17.1655 7.31706 17.5622C7.0675 17.7348 6.96094 18.0503 7.05375 18.3384L7.80381 20.667C7.49169 20.9454 7.19537 21.2417 6.91694 21.5538L4.58906 20.8038C4.30031 20.7103 3.98475 20.8175 3.81288 21.0671C3.41619 21.6405 3.047 22.2846 2.71563 22.9818C2.585 23.2561 2.64963 23.5833 2.87444 23.7868L4.68806 25.43C4.55881 25.8239 4.45087 26.2268 4.36631 26.6351L1.97037 27.1521C1.67406 27.2161 1.45475 27.467 1.43 27.7688C1.40112 28.1353 1.375 28.5017 1.375 28.875C1.375 29.2483 1.40112 29.6148 1.43 29.9805ZM2.76444 28.3876L5.10331 27.8823C5.37969 27.8225 5.59144 27.5997 5.63681 27.3206C5.73994 26.6867 5.90631 26.0645 6.13112 25.4705C6.2315 25.2065 6.15931 24.9075 5.94963 24.7177L4.18344 23.1172C4.33744 22.8223 4.49831 22.5397 4.66469 22.2723L6.93069 23.0024C7.19881 23.0883 7.49444 23.0024 7.67387 22.7838C8.0795 22.2874 8.53738 21.8302 9.03375 21.4239C9.25238 21.2451 9.33969 20.9502 9.25238 20.6807L8.52225 18.4147C8.78969 18.2476 9.07156 18.0868 9.36719 17.9335L10.9677 19.7003C11.1581 19.91 11.4579 19.9822 11.7212 19.8818C12.3138 19.657 12.936 19.4906 13.5706 19.3875C13.8497 19.3421 14.0724 19.1304 14.1322 18.854L14.6369 16.5151C14.9607 16.498 15.29 16.4973 15.6124 16.5151L16.1178 18.854C16.1776 19.1304 16.4003 19.3421 16.6794 19.3875C17.3133 19.4906 17.9355 19.657 18.5295 19.8818C18.7921 19.9822 19.0919 19.9107 19.2823 19.7003L20.8828 17.9341C21.1777 18.0881 21.4603 18.249 21.7278 18.4154L20.9976 20.6814C20.911 20.9509 20.9976 21.2451 21.2163 21.4246C21.7126 21.8302 22.1698 22.2881 22.5761 22.7845C22.7556 23.0038 23.0505 23.0911 23.3193 23.0031L25.5853 22.273C25.7524 22.5404 25.9132 22.8223 26.0666 23.1172L24.2997 24.7177C24.09 24.9075 24.0178 25.2065 24.1182 25.4712C24.343 26.0638 24.5094 26.686 24.6125 27.3206C24.6579 27.5997 24.8696 27.8225 25.146 27.8823L27.4849 28.3869C27.4938 28.5485 27.5 28.7114 27.5 28.875C27.5 29.0386 27.4945 29.2016 27.4856 29.3625L25.1467 29.8678C24.8703 29.9276 24.6586 30.1503 24.6132 30.4295C24.5101 31.0633 24.3437 31.6855 24.1189 32.2795C24.0185 32.5435 24.0907 32.8426 24.3004 33.0323L26.0666 34.6328C25.9126 34.9278 25.7517 35.2103 25.5853 35.4778L23.3193 34.7476C23.0491 34.6596 22.7556 34.747 22.5761 34.9663C22.1712 35.4613 21.7133 35.9191 21.2163 36.3261C20.9976 36.5049 20.911 36.7998 20.9976 37.0686L21.7278 39.3346C21.4603 39.5017 21.1784 39.6626 20.8835 39.8159L19.283 38.049C19.0933 37.8393 18.7942 37.7685 18.5295 37.8675C17.9369 38.0923 17.3147 38.2587 16.6801 38.3618C16.401 38.4072 16.1782 38.619 16.1184 38.8953L15.6138 41.2342C15.29 41.2514 14.9607 41.2521 14.6383 41.2342L14.1329 38.8953C14.0731 38.619 13.8504 38.4072 13.5712 38.3618C12.9374 38.2587 12.3152 38.0923 11.7212 37.8675C11.4579 37.7671 11.1581 37.8386 10.9684 38.049L9.36788 39.8152C9.07294 39.6612 8.79038 39.5003 8.52294 39.334L9.25306 37.068C9.33969 36.7985 9.25306 36.5042 9.03444 36.3248C8.53806 35.9191 8.08087 35.4613 7.67456 34.9649C7.49513 34.7456 7.1995 34.659 6.93138 34.7463L4.66537 35.4764C4.49831 35.209 4.33744 34.9271 4.18412 34.6315L5.951 33.031C6.16069 32.8412 6.23287 32.5421 6.1325 32.2775C5.90769 31.6848 5.74131 31.0626 5.63819 30.4281C5.59281 30.149 5.38106 29.9262 5.10469 29.8664L2.76444 29.3631C2.75619 29.2016 2.75 29.0386 2.75 28.875C2.75 28.7114 2.7555 28.5485 2.76444 28.3876Z" fill="#D31C33"/>
<path d="M37.2756 11.1616C37.5341 11.0805 37.7211 10.8543 37.752 10.5848C37.7932 10.2376 37.8125 9.9234 37.8125 9.62502C37.8125 9.32665 37.7932 9.01246 37.7527 8.66527C37.7217 8.39577 37.5347 8.16959 37.2763 8.08846L35.3698 7.48965C35.3127 7.33359 35.2495 7.18027 35.1801 7.0304L36.1041 5.26008C36.2292 5.02015 36.2017 4.72865 36.0339 4.51552C35.6359 4.01227 35.178 3.5544 34.6734 3.15496C34.4602 2.98652 34.1688 2.95971 33.9288 3.08415L32.1571 4.00815C32.0072 3.9394 31.8539 3.87615 31.6979 3.81908L31.0991 1.91265C31.0179 1.65415 30.7917 1.46715 30.5223 1.43621C29.8265 1.35508 29.2978 1.35508 28.6021 1.43621C28.3326 1.46715 28.1064 1.65415 28.0252 1.91265L27.4264 3.81908C27.2704 3.87615 27.1171 3.9394 26.9672 4.00883L25.1969 3.08483C24.9569 2.9604 24.6661 2.98721 24.4523 3.15496C23.9491 3.55302 23.4912 4.0109 23.0918 4.51552C22.9233 4.72865 22.8958 5.01946 23.0209 5.26008L23.9442 7.0304C23.8755 7.18027 23.8123 7.33359 23.7552 7.48965L21.8488 8.08846C21.5903 8.16959 21.4032 8.39577 21.3723 8.66527C21.3317 9.01246 21.3125 9.32665 21.3125 9.62502C21.3125 9.9234 21.3317 10.2376 21.3723 10.5848C21.4032 10.8543 21.5903 11.0805 21.8488 11.1616L23.7552 11.7604C23.8123 11.9165 23.8755 12.0698 23.9449 12.2196L23.0209 13.99C22.8958 14.2299 22.9233 14.5214 23.0911 14.7345C23.4891 15.2378 23.947 15.6956 24.4516 16.0951C24.6641 16.2635 24.9562 16.2903 25.1962 16.1659L26.9665 15.2426C27.1164 15.3113 27.2697 15.3746 27.4257 15.4316L28.0246 17.3381C28.1057 17.5966 28.3319 17.7836 28.6014 17.8145C28.9499 17.8558 29.2641 17.875 29.5625 17.875C29.8609 17.875 30.1751 17.8558 30.5223 17.8152C30.7917 17.7843 31.0179 17.5973 31.0991 17.3388L31.6979 15.4323C31.8539 15.3753 32.0072 15.312 32.1571 15.2426L33.9274 16.1666C34.1674 16.2917 34.4589 16.2649 34.672 16.0965C35.1752 15.6984 35.6331 15.2405 36.0326 14.7359C36.201 14.5228 36.2285 14.232 36.1034 13.9913L35.1794 12.221C35.2488 12.0711 35.3121 11.9178 35.3691 11.7618L37.2756 11.1616ZM34.6218 10.5538C34.4046 10.6226 34.2354 10.7938 34.1694 11.0124C34.0759 11.3231 33.9522 11.6222 33.8023 11.902C33.6944 12.1028 33.6923 12.3441 33.7982 12.5455L34.6706 14.2175C34.5077 14.3983 34.3351 14.5709 34.155 14.7331L32.483 13.8607C32.2809 13.7548 32.0396 13.7576 31.8395 13.8648C31.5597 14.0147 31.2606 14.1385 30.9499 14.232C30.7319 14.2973 30.5601 14.4671 30.4913 14.6843L29.9248 16.4883C29.6739 16.5035 29.4518 16.5035 29.2002 16.4883L28.6337 14.6843C28.5649 14.4671 28.3937 14.298 28.1751 14.232C27.8637 14.1385 27.5646 14.0147 27.2862 13.8648C27.0854 13.7569 26.8441 13.7548 26.642 13.8607L24.97 14.7331C24.7892 14.5702 24.6166 14.3976 24.4544 14.2175L25.3268 12.5455C25.432 12.3441 25.4306 12.1021 25.3227 11.902C25.1728 11.6222 25.0491 11.3231 24.9556 11.0124C24.8902 10.7945 24.7204 10.6226 24.5032 10.5538L22.6992 9.98734C22.6909 9.86152 22.6875 9.74121 22.6875 9.62502C22.6875 9.50883 22.6909 9.38852 22.6992 9.26271L24.5032 8.69621C24.7204 8.62746 24.8896 8.45627 24.9556 8.23765C25.0491 7.92621 25.1728 7.62715 25.3227 7.34871C25.4306 7.14796 25.4327 6.90665 25.3268 6.70452L24.4544 5.03252C24.6173 4.85171 24.7899 4.67915 24.97 4.5169L26.642 5.38934C26.8434 5.49452 27.0854 5.49246 27.2855 5.38521C27.5653 5.23533 27.8644 5.11158 28.1751 5.01808C28.3931 4.95277 28.5649 4.78296 28.6337 4.56571L29.2002 2.76171C29.4511 2.74659 29.6732 2.74659 29.9248 2.76171L30.4913 4.56571C30.5601 4.78296 30.7313 4.95208 30.9499 5.01808C31.2613 5.11158 31.5604 5.23533 31.8388 5.38521C32.0396 5.49315 32.2809 5.49521 32.483 5.38934L34.155 4.5169C34.3358 4.67983 34.5084 4.8524 34.6706 5.03252L33.7982 6.70452C33.693 6.90596 33.6944 7.14796 33.8023 7.34802C33.9522 7.62783 34.0759 7.9269 34.1694 8.23765C34.2347 8.45559 34.4046 8.62746 34.6218 8.69621L36.4258 9.26271C36.4341 9.38852 36.4375 9.50883 36.4375 9.62502C36.4375 9.74121 36.4341 9.86152 36.4258 9.98734L34.6218 10.5538Z" fill="#D31C33"/>
<path d="M42.1176 24.0377L40.9365 23.6183C40.8691 23.4265 40.7921 23.2388 40.7048 23.0567L41.2417 21.9257C41.3538 21.6906 41.3229 21.4128 41.162 21.208C40.8183 20.7687 40.4209 20.3706 39.9802 20.0255C39.7746 19.8646 39.4955 19.8343 39.2618 19.9457L38.1301 20.4827C37.9486 20.396 37.7609 20.3183 37.5691 20.2517L37.1491 19.0705C37.0617 18.8251 36.8424 18.6498 36.5839 18.6182C35.9714 18.5446 35.5279 18.5446 34.9154 18.6182C34.6569 18.6491 34.4376 18.8244 34.3503 19.0705L33.9309 20.2517C33.7391 20.319 33.5514 20.396 33.3692 20.4833L32.2382 19.9464C32.0045 19.835 31.7261 19.866 31.5205 20.0262C31.0812 20.3699 30.6831 20.7673 30.338 21.208C30.1778 21.4128 30.1469 21.6913 30.2583 21.9264L30.7952 23.058C30.7086 23.2395 30.6309 23.4272 30.5642 23.619L29.3831 24.0391C29.1376 24.1264 28.9623 24.3457 28.9307 24.6042C28.8929 24.9088 28.875 25.1817 28.875 25.4375C28.875 25.6932 28.8929 25.9655 28.93 26.2714C28.9609 26.5299 29.1362 26.7492 29.3824 26.8365L30.5635 27.2559C30.6309 27.4477 30.7079 27.6354 30.7952 27.8176L30.2583 28.9485C30.1462 29.1836 30.1771 29.4614 30.338 29.6663C30.6817 30.1056 31.0791 30.5036 31.5198 30.8488C31.7247 31.009 32.0038 31.0399 32.2382 30.9285L33.3699 30.3916C33.5514 30.4782 33.7391 30.5559 33.9309 30.6226L34.3509 31.8037C34.4383 32.0491 34.6576 32.2245 34.9161 32.2561C35.222 32.2946 35.4942 32.3125 35.75 32.3125C36.0058 32.3125 36.278 32.2946 36.5839 32.2575C36.8424 32.2265 37.0617 32.0512 37.1491 31.8051L37.5684 30.624C37.7603 30.5566 37.9479 30.4796 38.1301 30.3923L39.2611 30.9292C39.4955 31.0413 39.7746 31.011 39.9788 30.8495C40.4181 30.5057 40.8162 30.1083 41.1613 29.6676C41.3215 29.4628 41.3524 29.1843 41.2411 28.9492L40.7041 27.8176C40.7908 27.6361 40.8684 27.4484 40.9351 27.2566L42.1162 26.8365C42.3617 26.7492 42.537 26.5299 42.5686 26.2714C42.6071 25.9655 42.625 25.6932 42.625 25.4375C42.625 25.1817 42.6071 24.9095 42.57 24.6035C42.5391 24.3443 42.3638 24.1257 42.1176 24.0377ZM41.2431 25.6884L40.1534 26.0755C39.9424 26.1504 39.7808 26.3237 39.721 26.5395C39.6309 26.8661 39.5024 27.1775 39.3394 27.4656C39.2294 27.6602 39.2212 27.8966 39.3167 28.0988L39.8104 29.139C39.6962 29.2641 39.5766 29.3837 39.4522 29.4971L38.412 29.0035C38.2113 28.908 37.9741 28.9162 37.7788 29.0262C37.4901 29.1898 37.1786 29.3177 36.8534 29.4078C36.6376 29.4676 36.4643 29.6291 36.3887 29.8402L36.0016 30.9299C35.8353 30.9388 35.6661 30.9388 35.4998 30.9299L35.1127 29.8402C35.0378 29.6291 34.8645 29.4676 34.6486 29.4078C34.3221 29.3177 34.0106 29.1891 33.7226 29.0262C33.528 28.9169 33.2922 28.9086 33.0894 29.0035L32.0492 29.4971C31.9241 29.383 31.8044 29.2634 31.691 29.139L32.1846 28.0988C32.2809 27.8966 32.2719 27.6602 32.1619 27.4656C31.9983 27.1768 31.8704 26.8654 31.7804 26.5402C31.7206 26.3243 31.559 26.1511 31.3479 26.0755L30.2583 25.6884C30.2528 25.6052 30.25 25.522 30.25 25.4375C30.25 25.3529 30.2527 25.269 30.2569 25.1865L31.3466 24.7988C31.5576 24.7238 31.7192 24.5506 31.7783 24.3347C31.8691 24.0075 31.9976 23.6967 32.1606 23.4087C32.2706 23.2141 32.2788 22.9776 32.1833 22.7755L31.6896 21.7353C31.8038 21.6102 31.9234 21.4905 32.0478 21.3771L33.088 21.8707C33.2901 21.967 33.5266 21.9587 33.7212 21.848C34.0099 21.6844 34.3214 21.5565 34.6466 21.4665C34.8624 21.4067 35.0357 21.2451 35.1113 21.034L35.4984 19.9443C35.6647 19.9354 35.8339 19.9354 36.0002 19.9443L36.3873 21.034C36.4622 21.2451 36.6355 21.4067 36.8514 21.4665C37.1779 21.5565 37.4894 21.6851 37.7774 21.848C37.9727 21.9587 38.2085 21.967 38.4106 21.8707L39.4508 21.3771C39.5759 21.4912 39.6956 21.6108 39.809 21.7353L39.3154 22.7755C39.2191 22.9776 39.2281 23.2141 39.3381 23.4087C39.5017 23.6974 39.6296 24.0088 39.7196 24.334C39.7794 24.5499 39.941 24.7232 40.1521 24.7988L41.2417 25.1858C41.2472 25.2697 41.25 25.3529 41.25 25.4375C41.25 25.522 41.2473 25.6052 41.2431 25.6884Z" fill="#D31C33"/>
<path d="M15.125 36.4375C19.2947 36.4375 22.6875 33.0447 22.6875 28.875C22.6875 24.7053 19.2947 21.3125 15.125 21.3125C10.9553 21.3125 7.5625 24.7053 7.5625 28.875C7.5625 33.0447 10.9553 36.4375 15.125 36.4375ZM15.125 22.6875C18.5364 22.6875 21.3125 25.4636 21.3125 28.875C21.3125 32.2864 18.5364 35.0625 15.125 35.0625C11.7136 35.0625 8.9375 32.2864 8.9375 28.875C8.9375 25.4636 11.7136 22.6875 15.125 22.6875Z" fill="#D31C33"/>
<path d="M1.39012 17.4343L2.44612 18.315C5.59418 14.5399 10.2149 12.375 15.125 12.375C15.4749 12.375 15.8242 12.3949 16.1734 12.4169L15.3264 13.2639L16.2986 14.236L18.3611 12.1735C18.6299 11.9047 18.6299 11.4702 18.3611 11.2014L16.2986 9.13892L15.3264 10.111L16.2607 11.0454C15.8826 11.0213 15.5038 11 15.125 11C9.80649 11 4.80012 13.345 1.39012 17.4343Z" fill="#D31C33"/>
<path d="M29.5625 6.1875C27.6671 6.1875 26.125 7.72956 26.125 9.625C26.125 11.5204 27.6671 13.0625 29.5625 13.0625C31.4579 13.0625 33 11.5204 33 9.625C33 7.72956 31.4579 6.1875 29.5625 6.1875ZM29.5625 11.6875C28.4254 11.6875 27.5 10.7621 27.5 9.625C27.5 8.48787 28.4254 7.5625 29.5625 7.5625C30.6996 7.5625 31.625 8.48787 31.625 9.625C31.625 10.7621 30.6996 11.6875 29.5625 11.6875Z" fill="#D31C33"/>
<path d="M35.75 22.6875C34.2334 22.6875 33 23.9209 33 25.4375C33 26.9541 34.2334 28.1875 35.75 28.1875C37.2666 28.1875 38.5 26.9541 38.5 25.4375C38.5 23.9209 37.2666 22.6875 35.75 22.6875ZM35.75 26.8125C34.9917 26.8125 34.375 26.1958 34.375 25.4375C34.375 24.6792 34.9917 24.0625 35.75 24.0625C36.5083 24.0625 37.125 24.6792 37.125 25.4375C37.125 26.1958 36.5083 26.8125 35.75 26.8125Z" fill="#D31C33"/>
<path d="M42.0723 3.45131L38.6347 2.76381C38.2607 2.68819 37.8998 2.93087 37.8256 3.30281L37.1381 6.74031L38.4862 7.0105L38.8568 5.15975C39.523 6.54575 39.875 8.07337 39.875 9.62506C39.875 11.9956 39.0926 14.2244 37.6131 16.0704L38.6863 16.9304C40.3397 14.8672 41.25 12.2733 41.25 9.62506C41.25 7.8245 40.8341 6.04937 40.0427 4.4475L41.8028 4.7995L42.0723 3.45131Z" fill="#D31C33"/>
</svg>
