<svg width="66" height="66" viewBox="0 0 66 66" fill="none" xmlns="http://www.w3.org/2000/svg">
<g clip-path="url(#clip0)">
<path d="M29.9645 18.4357C30.1371 18.5819 30.3553 18.6613 30.5799 18.6613C30.6068 18.6613 30.634 18.6602 30.661 18.6579C30.9134 18.6363 31.1469 18.5151 31.3096 18.3208L37.3843 11.0726C37.7221 10.6695 37.6692 10.069 37.2661 9.73132C36.8633 9.39337 36.2627 9.44631 35.9249 9.84951L30.4647 16.3641L27.9671 14.2488C27.5659 13.9088 26.9649 13.9587 26.6252 14.36C26.2853 14.7613 26.3352 15.3622 26.7365 15.7019L29.9645 18.4357Z" fill="#187CB6"/>
<path d="M32.3738 27.1317C35.6236 27.1317 38.8733 25.8952 41.3473 23.4221C43.7429 21.0276 45.0622 17.843 45.0622 14.455C45.0622 11.0672 43.743 7.88177 41.3473 5.48515C38.7496 2.88845 35.1606 1.54453 31.5022 1.80072C27.8277 2.05704 24.452 3.88478 22.241 6.81537C21.9244 7.2352 22.0079 7.83214 22.4276 8.14888C22.8477 8.46576 23.4445 8.3821 23.7613 7.96226C25.6403 5.4717 28.5101 3.9183 31.6349 3.70045C34.7431 3.48425 37.7934 4.62505 40.0008 6.83175C42.0368 8.86833 43.1579 11.5757 43.1579 14.455C43.1579 17.3342 42.0368 20.0406 40.0012 22.0754C35.7954 26.2794 28.9525 26.2792 24.7467 22.0754C21.9899 19.3196 20.9358 15.2744 21.9959 11.518C22.1387 11.0119 21.8443 10.4858 21.3381 10.343C20.8328 10.2003 20.306 10.4947 20.1632 11.0008C18.916 15.42 20.1564 20.1796 23.4005 23.4221C25.8744 25.8953 29.1241 27.1317 32.3738 27.1317Z" fill="#187CB6"/>
<path d="M61.6279 48.9887C61.3118 48.8084 60.9855 48.623 60.6504 48.4225L58.1608 46.9295C59.3187 45.6993 60.1857 44.2051 60.5272 42.7083C60.6313 42.2563 60.6847 41.812 60.6847 41.3893V35.0873C60.6847 32.2207 58.5277 29.6334 55.1876 28.4972C52.2677 27.5044 49.3693 27.9652 47.8091 29.6309C46.2095 29.9127 43.9662 31.181 44.0424 36.0928C44.0437 36.1359 44.0437 36.1715 44.0437 36.1994V41.3893C44.0437 41.812 44.097 42.2563 44.2011 42.7045C44.5413 44.2025 45.4071 45.6993 46.5675 46.9308L44.1198 48.3983C44.1021 48.4072 44.0843 48.4187 44.0665 48.4288C43.7364 48.6269 43.4127 48.8109 43.1004 48.9887C42.1647 49.5206 41.2532 50.0373 40.5499 50.7609L38.7954 49.7085C39.9545 48.4771 40.8216 46.9828 41.1631 45.4873C41.2646 45.0417 41.3167 44.5974 41.3167 44.167V41.3664C41.3167 41.3658 41.3168 41.3651 41.3168 41.3645V37.8645C41.3168 34.9991 39.1609 32.4133 35.8242 31.2771C32.9048 30.2828 30.0052 30.7427 28.4449 32.4077C26.8443 32.6888 24.6004 33.9569 24.6781 38.8682C24.6789 38.9125 24.6795 38.9488 24.6795 38.9761V40.1845V41.9042V44.167C24.6795 44.5771 24.7303 45.0188 24.8331 45.4873C25.1746 46.9828 26.0417 48.4771 27.2021 49.7085L25.4501 50.7609C24.7455 50.0373 23.834 49.5193 22.8971 48.9874C22.581 48.8071 22.2547 48.623 21.9208 48.4225L21.8954 48.4072C21.8929 48.4058 21.8905 48.4042 21.8879 48.4028L19.4307 46.9306C20.59 45.6998 21.4568 44.2056 21.7983 42.7084C21.9005 42.2661 21.9523 41.8224 21.9523 41.3898V38.584V37.5155V35.0876C21.9523 32.2216 19.7961 29.6353 16.459 28.4987C13.539 27.504 10.6382 27.9645 9.07683 29.6307C7.47734 29.9119 5.23573 31.1802 5.31355 36.091C5.31432 36.1354 5.31495 36.1717 5.31495 36.199V37.4041V39.1235V41.3898C5.31495 41.8224 5.36675 42.266 5.46831 42.7059C5.81019 44.2043 6.67716 45.6991 7.83611 46.93L5.34542 48.4223C5.01204 48.6223 4.68615 48.8075 4.3708 48.9866C2.3803 50.1178 0.5 51.1862 0.5 54.3001V59.8937C0.5 60.0834 0.5 60.6606 0.916787 61.07C1.26553 61.4126 1.69158 61.4499 2.01506 61.4499C2.06305 61.4499 2.10875 61.4491 2.15153 61.4484C2.19686 61.4476 2.24434 61.4466 2.2941 61.4466H11.6856C11.6862 61.4466 11.6869 61.4467 11.6875 61.4467C11.6881 61.4467 11.6888 61.4466 11.6894 61.4466H13.6327H13.6332H15.5707C15.5712 61.4466 15.5717 61.4467 15.5723 61.4467C15.5728 61.4467 15.5733 61.4466 15.5738 61.4466H19.8639V62.6704C19.8639 62.8608 19.8639 63.4397 20.2829 63.8498C20.632 64.1926 21.0573 64.2307 21.381 64.2307C21.4292 64.2307 21.4749 64.2294 21.5181 64.2294C21.5625 64.2281 21.6095 64.2269 21.659 64.2269H22.7559C23.2815 64.2269 23.708 63.8003 23.708 63.2747C23.708 62.7491 23.2815 62.3226 22.7559 62.3226H21.7682V61.4466V59.5423V57.0769C21.7682 55.151 22.6086 54.5975 24.6792 53.4231C24.711 53.4054 24.7427 53.3863 24.7757 53.3686C24.9078 53.2937 25.0411 53.2162 25.1782 53.1375L26.7663 54.1658L28.4028 55.2259C28.4167 55.2335 28.4307 55.2424 28.4447 55.25C28.5589 55.316 28.6592 55.3858 28.757 55.4519C28.9563 55.5877 29.3371 55.8479 29.798 55.8479C29.9884 55.8479 30.1928 55.8035 30.4036 55.688L30.5343 56.2009L28.6783 60.2215C28.677 60.224 28.6757 60.2278 28.6745 60.2304C28.5158 60.5579 28.5412 60.9197 28.7379 61.2181L29.3867 62.3226H27.1536C26.628 62.3226 26.2014 62.7491 26.2014 63.2747C26.2014 63.8003 26.628 64.2269 27.1536 64.2269H31.0497H31.0523H44.3379C44.3874 64.2269 44.4344 64.2281 44.4788 64.2294C44.522 64.2294 44.5677 64.2307 44.616 64.2307C44.941 64.2307 45.3675 64.1926 45.7179 63.8498C46.1356 63.4397 46.1356 62.8608 46.1356 62.6704V61.4466H54.3012H54.3038H63.7059C63.7541 61.4466 63.8024 61.4478 63.8468 61.4478C63.89 61.4491 63.9357 61.4504 63.9839 61.4504C64.3077 61.4504 64.7329 61.4123 65.0821 61.0695C65.4997 60.6595 65.4997 60.0831 65.4997 59.8939V54.3004C65.5 51.1875 63.6198 50.1186 61.6279 48.9887ZM19.6311 49.2696L17.2105 50.8351C17.1105 50.8942 17.0217 50.9516 16.9428 51.0044L16.4225 50.4532C16.4137 50.4432 16.4042 50.4338 16.395 50.4241L15.5276 49.5052C15.6211 49.4739 15.7158 49.4404 15.8122 49.4043C16.5488 49.13 17.264 48.7345 17.9312 48.2511L19.6311 49.2696ZM9.6471 31.4747C9.91218 31.4514 10.1554 31.3182 10.3178 31.1075C11.2843 29.8534 13.5571 29.5219 15.8452 30.3012C17.7839 30.9616 20.048 32.6113 20.048 35.0876V37.5157V37.632H19.6471C18.7086 37.632 18.1026 37.1089 17.1914 36.2555C16.1658 35.295 14.8894 34.0995 12.6728 34.0995H10.967C8.89566 34.0995 8.54972 35.7828 8.34316 36.7885C8.10551 37.9449 7.9929 38.1716 7.23512 38.1716H7.21925V37.4043V36.1993C7.21925 36.1644 7.21861 36.1179 7.2176 36.061C7.17189 33.1636 7.98909 31.6206 9.6471 31.4747ZM7.32449 42.2798C7.25467 41.9778 7.21938 41.6783 7.21938 41.3898V40.0757H7.23524C9.61181 40.0757 9.9999 38.1865 10.2085 37.1716C10.4486 36.0037 10.5481 36.0037 10.9672 36.0037H12.673C14.1371 36.0037 14.9494 36.7644 15.8899 37.6453C16.8362 38.5315 17.9087 39.5361 19.6473 39.5361H20.0482V41.3898C20.0482 41.6783 20.0129 41.9778 19.9425 42.2824C19.4377 44.4952 17.3764 46.7898 15.1465 47.6204C14.5744 47.8344 14.0938 47.9341 13.6339 47.9341C13.1741 47.9341 12.6935 47.8344 12.1201 47.6199C9.89123 46.7898 7.82977 44.4953 7.32449 42.2798ZM14.6539 51.3539L14.3446 52.5637H12.9161L12.6089 51.3588L13.6337 50.2733L14.6539 51.3539ZM9.33606 48.2513C10.0029 48.7346 10.7178 49.1298 11.4539 49.4041C11.5506 49.4402 11.6459 49.4739 11.7398 49.5055L10.3249 51.0042C10.2457 50.9514 10.1563 50.8939 10.0559 50.8347L7.63629 49.2699L9.33606 48.2513ZM9.36107 58.4222L10.0209 59.5423H2.4043V54.3001C2.4043 52.3713 3.24358 51.8176 5.31178 50.6424C5.47517 50.5494 5.64147 50.455 5.81108 50.3571L9.03912 52.4448C9.05156 52.4528 9.064 52.4605 9.0767 52.4679C9.19083 52.5345 9.29138 52.6034 9.38862 52.6701C9.60533 52.8186 9.98149 53.0763 10.4356 53.0763C10.6254 53.0763 10.8289 53.0306 11.04 52.9137L11.17 53.4237L9.31474 57.4435C9.15541 57.7613 9.17306 58.1218 9.36107 58.4222ZM15.0292 59.5423H13.6342C13.6341 59.5423 13.6339 59.5423 13.6337 59.5423H12.231L11.2288 57.8409L12.7855 54.4681H14.4749L16.0316 57.8409L15.0292 59.5423ZM19.8642 57.0769V59.5423H17.2393L17.8992 58.4223C18.0869 58.1224 18.1047 57.7623 17.9456 57.4441L16.0902 53.4242L16.2215 52.9106C16.4348 53.03 16.6404 53.0767 16.8323 53.0767C17.2882 53.0767 17.666 52.8172 17.8834 52.6678C17.9799 52.6016 18.0796 52.5331 18.1924 52.4669C18.2045 52.46 18.2163 52.4526 18.228 52.4451L21.4562 50.3574C21.6259 50.4552 21.7921 50.5498 21.955 50.6431C22.7027 51.0684 23.2892 51.4112 23.7348 51.7692C21.7443 52.8988 19.8642 53.9678 19.8642 57.0769ZM58.3602 49.2705L55.9442 50.8346C55.8427 50.8942 55.7525 50.9526 55.6726 51.006L55.1521 50.4537C55.1419 50.4423 55.1292 50.4296 55.1178 50.4182L54.257 49.5054C54.351 49.4749 54.4449 49.4406 54.5414 49.4051C55.2777 49.1296 55.9925 48.7348 56.6603 48.2511L58.3602 49.2705ZM48.3791 31.4742C48.6444 31.4514 48.8882 31.3181 49.0507 31.1073C50.0155 29.8543 52.2867 29.5217 54.5744 30.2999C56.5143 30.9613 58.7804 32.6104 58.7804 35.0873V37.6314H58.3767C57.4385 37.6314 56.8329 37.1097 55.9227 36.2565C54.8969 35.2955 53.621 34.0996 51.4019 34.0996H49.6956C47.6237 34.0996 47.2784 35.783 47.0728 36.7897C46.8354 37.945 46.7236 38.171 45.9683 38.171H45.9479V36.1994C45.9479 36.1651 45.948 36.1182 45.9467 36.0623C45.9022 33.164 46.7198 31.6202 48.3791 31.4742ZM46.0571 42.2805C45.9848 41.9682 45.9479 41.6686 45.9479 41.3893V40.0753H45.9683C48.3423 40.0753 48.7295 38.1862 48.9377 37.1719C49.1776 36.0039 49.2767 36.0039 49.6956 36.0039H51.4019C52.8682 36.0039 53.6807 36.7644 54.6201 37.6454C55.5659 38.5315 56.6374 39.5357 58.3767 39.5357H58.7804V41.3893C58.7804 41.6686 58.7436 41.9682 58.6712 42.283C58.1672 44.4958 56.1055 46.7898 53.8736 47.6214C53.3062 47.8347 52.8263 47.9337 52.3629 47.9337C51.9021 47.9337 51.4234 47.8347 50.8521 47.6201C48.6203 46.7886 46.5586 44.4945 46.0571 42.2805ZM53.3836 51.3551L53.0764 52.5637H51.6456L51.3384 51.3589L52.3629 50.2734L53.3836 51.3551ZM48.0668 48.2523C48.7333 48.7348 49.448 49.1296 50.1844 49.4038C50.2809 49.4394 50.3761 49.4736 50.47 49.5054L49.0545 51.0034C48.9745 50.9514 48.8856 50.8942 48.7854 50.8346L46.3682 49.2692L48.0668 48.2523ZM38.9973 52.0495L36.5813 53.6148C36.4798 53.6732 36.3896 53.7316 36.3097 53.7837L34.8929 52.2856C34.9868 52.2539 35.0808 52.2209 35.1772 52.1854C35.9148 51.9099 36.6296 51.5138 37.2974 51.0288L38.9973 52.0495ZM29.0149 34.2518C29.2801 34.2285 29.5235 34.0953 29.6859 33.8844C30.6512 32.6317 32.9226 32.3008 35.2104 33.0798C37.1488 33.74 39.4125 35.3891 39.4125 37.8647V40.2906C39.4125 40.2912 39.4124 40.2919 39.4124 40.2924V40.4125H39.0116C38.0737 40.4125 37.4684 39.8898 36.5582 39.0369C35.5327 38.076 34.2565 36.88 32.0374 36.88H30.3317C28.2597 36.88 27.9143 38.564 27.708 39.5701C27.4709 40.7255 27.3587 40.952 26.6035 40.952H26.5839V40.1845V38.9761C26.5839 38.9412 26.5833 38.8948 26.5823 38.8381C26.5363 35.9407 27.3548 34.3977 29.0149 34.2518ZM26.6917 45.0709C26.6206 44.7446 26.5838 44.4412 26.5838 44.167V42.8563H26.6033C28.9779 42.8563 29.3652 40.9675 29.5734 39.9527C29.813 38.7842 29.9126 38.7842 30.3317 38.7842H32.0374C33.5037 38.7842 34.3159 39.5451 35.2562 40.4263C36.2018 41.3123 37.2735 42.3166 39.0117 42.3166H39.4125V44.1669C39.4125 44.455 39.377 44.7559 39.3072 45.0619C38.8019 47.2721 36.7402 49.5675 34.5134 50.4003C33.9345 50.6148 33.4534 50.7151 32.9989 50.7151C32.5469 50.7151 32.0645 50.6148 31.4856 50.4003C29.2562 49.5676 27.1944 47.2723 26.6917 45.0709ZM34.0194 54.1328L33.7122 55.3414H32.2802L31.9742 54.1366L32.9987 53.0524L34.0194 54.1328ZM29.6878 53.7824C29.6091 53.7304 29.5202 53.6732 29.4187 53.6148L27.0027 52.0495L28.7001 51.0288C29.3691 51.5138 30.0852 51.9099 30.8228 52.1866C30.918 52.2209 31.0119 52.2539 31.1046 52.2844L29.6878 53.7824ZM34.3939 62.3226H31.5959L30.5942 60.6176L32.1494 57.2457H33.843L35.3969 60.6201L34.3939 62.3226ZM44.2315 62.3226H36.6042L37.2644 61.2028C37.4484 60.9058 37.4688 60.5478 37.3139 60.2304C37.3126 60.2278 37.3113 60.224 37.3101 60.2215L35.4578 56.2009L35.5886 55.6905C35.8006 55.8086 36.0062 55.8556 36.1967 55.8556C36.6499 55.8556 37.0257 55.5991 37.2428 55.4519C37.3405 55.3846 37.4408 55.316 37.5551 55.25C37.569 55.2424 37.583 55.2335 37.597 55.2259L40.8216 53.1375C40.9562 53.2162 41.0907 53.2924 41.2215 53.3673C41.2558 53.3863 41.29 53.4066 41.3243 53.4257C43.3924 54.6 44.2315 55.1535 44.2315 57.0769V62.3226ZM48.1023 58.4378L48.7523 59.5423H46.1358V57.0769C46.1358 53.9678 44.2557 52.9001 42.265 51.7689C42.265 51.7689 42.2638 51.7689 42.2638 51.7677C42.7081 51.4109 43.2946 51.0669 44.0411 50.6441C44.2049 50.5502 44.3725 50.4562 44.5426 50.3572L47.7685 52.4443C47.7799 52.4532 47.7926 52.4608 47.8053 52.4685C47.9195 52.5345 48.0198 52.603 48.1176 52.669C48.3182 52.8062 48.7016 53.0689 49.1662 53.0689C49.3554 53.0689 49.5585 53.0245 49.768 52.9103L49.8987 53.4231L48.0439 57.4438C48.0427 57.445 48.0427 57.445 48.0427 57.4463C47.8802 57.7738 47.903 58.1369 48.1023 58.4378ZM53.7581 59.5423H50.9613L49.9597 57.8386L51.5148 54.468H53.2071L54.7623 57.8373L53.7581 59.5423ZM63.5957 59.5423H55.9684L56.6272 58.4226C56.805 58.1407 56.8329 57.8094 56.7034 57.5021C56.6958 57.4831 56.6869 57.4628 56.678 57.4438L54.822 53.4231L54.9527 52.9115C55.1647 53.0296 55.3704 53.0766 55.5621 53.0766C56.0166 53.0766 56.3949 52.8176 56.612 52.669C56.7085 52.603 56.8088 52.5345 56.923 52.4685C56.9357 52.4608 56.9484 52.4532 56.9611 52.4443L60.1857 50.3572C60.3559 50.4562 60.5234 50.5502 60.6872 50.6441C62.7565 51.8185 63.5957 52.372 63.5957 54.3004V59.5423Z" fill="#187CB6"/>
</g>
<defs>
<clipPath id="clip0">
<rect width="65" height="65" fill="white" transform="translate(0.5 0.5)"/>
</clipPath>
</defs>
</svg>
