<svg width="66" height="66" viewBox="0 0 66 66" fill="none" xmlns="http://www.w3.org/2000/svg">
<g clip-path="url(#clip0)">
<path d="M22.1727 51.929H39.1499C39.6839 51.929 40.1167 51.4961 40.1167 50.9622C40.1167 50.4282 39.6839 49.9954 39.1499 49.9954H22.1727C21.6386 49.9954 21.2059 50.4282 21.2059 50.9622C21.2059 51.4961 21.6386 51.929 22.1727 51.929Z" fill="#187CB6"/>
<path d="M22.1727 46.145H39.1499C39.6839 46.145 40.1167 45.7122 40.1167 45.1782C40.1167 44.6443 39.6839 44.2114 39.1499 44.2114H22.1727C21.6386 44.2114 21.2059 44.6443 21.2059 45.1782C21.2059 45.7122 21.6386 46.145 22.1727 46.145Z" fill="#187CB6"/>
<path d="M28.714 26.4314H26.493C24.8175 26.4314 24.0543 24.7435 24.0543 23.1754C24.0543 22.2766 24.2997 21.4168 24.7279 20.8165C25.1645 20.2041 25.7584 19.8936 26.493 19.8936H28.3284C28.8625 19.8936 29.2952 19.4607 29.2952 18.9268C29.2952 18.3928 28.8625 17.96 28.3284 17.96H26.493C25.1368 17.96 23.9506 18.5757 23.1535 19.694C22.4875 20.6281 22.1207 21.8644 22.1207 23.1754C22.1207 25.7543 23.6226 28.365 26.493 28.365H28.714C29.248 28.365 29.6808 27.9322 29.6808 27.3982C29.6808 26.8643 29.2479 26.4314 28.714 26.4314Z" fill="#187CB6"/>
<path d="M38.3436 18.0135C37.8387 17.8383 37.2883 18.1054 37.1132 18.6099L34.9156 24.943L32.7181 18.6099C32.5431 18.1055 31.9927 17.8387 31.4877 18.0135C30.9833 18.1885 30.7164 18.7393 30.8913 19.2438L33.7544 27.4949C33.7606 27.5126 33.7672 27.53 33.7743 27.5471C33.9808 28.0466 34.4126 28.3608 34.9017 28.3666C34.9065 28.3666 34.9114 28.3667 34.9161 28.3667C35.4043 28.3667 35.8266 28.0692 36.0477 27.5685C36.0584 27.5443 36.068 27.5198 36.0768 27.4948L38.9399 19.2436C39.115 18.7393 38.848 18.1885 38.3436 18.0135Z" fill="#187CB6"/>
<path d="M63.7367 44.7136L55.7686 37.6949V25.7348C55.7686 25.2009 55.3358 24.768 54.8018 24.768C54.2677 24.768 53.835 25.2009 53.835 25.7348V35.9917L51.8154 34.2126C51.2401 33.7041 50.4982 33.4509 49.7287 33.4993C48.957 33.5477 48.252 33.8929 47.744 34.4708L46.7469 35.6036L43.498 32.7413C48.6653 26.112 47.8335 16.4894 41.4446 10.8649C38.2329 8.03382 34.1114 6.62385 29.8397 6.89532C25.5684 7.16654 21.6584 9.08557 18.8298 12.2989L18.8301 12.2987C12.9894 18.9294 13.6325 29.0791 20.2635 34.9244C23.215 37.5243 26.9337 38.9249 30.8314 38.9249C31.1757 38.9249 31.5219 38.914 31.8687 38.8919C35.8176 38.6412 39.4574 36.9811 42.2207 34.1929L45.4695 37.0551L44.4699 38.1907C44.4698 38.1908 44.4698 38.1909 44.4697 38.1909C43.4195 39.3851 43.536 41.2112 44.729 42.2611L53.8352 50.2849V58.5218H9.35575V1.93359H44.2349L44.2288 6.9523C44.2288 9.23484 46.0868 11.0917 48.3708 11.0917H53.8351V21.2512C53.8351 21.7852 54.2678 22.218 54.8019 22.218C55.336 22.218 55.7687 21.7852 55.7687 21.2512V10.3012C55.7687 10.2647 55.7674 10.2294 55.7652 10.1949C55.7669 10.1717 55.7687 10.1485 55.7687 10.1249C55.7687 9.81879 55.626 9.54641 55.404 9.36929C55.3348 9.29311 55.263 9.2253 55.1955 9.16188C55.1488 9.11805 55.0943 9.06688 55.0307 9.00462C55.0276 9.00165 55.0245 8.99856 55.0214 8.99559L46.3772 0.752426L46.2474 0.627645C46.092 0.477469 45.9393 0.332449 45.7613 0.219012C45.6753 0.15791 45.5791 0.110602 45.4754 0.0801797C45.3363 0.0310664 45.1812 0 44.9973 0H9.17824C8.2099 0 7.42215 0.787875 7.42215 1.75635V5.54116H3.04437C2.07615 5.54116 1.28841 6.33071 1.28841 7.30112V31.937C1.28841 32.471 1.72115 32.9038 2.2552 32.9038C2.78926 32.9038 3.222 32.471 3.222 31.937V7.47476H7.42215V58.6989C7.42215 59.6674 8.2099 60.4552 9.17824 60.4552H47.7014V64.0664H3.26183C3.24469 64.0294 3.23128 63.9907 3.22922 63.9681L3.22187 36.424C3.22174 35.8901 2.78888 35.4573 2.25482 35.4575C1.72076 35.4576 1.28815 35.8906 1.28828 36.4245L1.29563 63.9683C1.29563 64.8168 1.96091 66 3.04424 66H47.8787C48.8471 66 49.6348 65.2121 49.6348 64.2437V60.4551H54.0126C54.9808 60.4551 55.7686 59.6672 55.7686 58.6987V51.9884L56.6481 52.7634C57.1783 53.2299 57.8471 53.4813 58.5487 53.4813C58.6111 53.4813 58.6739 53.4792 58.7368 53.4753C59.5066 53.4264 60.2103 53.0811 60.7179 52.5039L63.9911 48.7853C65.0434 47.5944 64.9298 45.7682 63.7367 44.7136ZM31.7461 36.9621C27.9897 37.2005 24.3661 35.9616 21.5418 33.4736C15.7104 28.3332 15.1448 19.4075 20.2809 13.5767C20.2811 13.5767 20.2811 13.5765 20.2812 13.5764C22.7684 10.7509 26.2065 9.0634 29.9623 8.82492C30.2674 8.80559 30.5713 8.79592 30.8742 8.79592C34.3014 8.79592 37.5717 10.0283 40.1665 12.3156C45.9986 17.4502 46.5661 26.3734 41.4315 32.2076C41.4312 32.2079 41.431 32.2081 41.4307 32.2084C41.4305 32.2086 41.4302 32.209 41.4299 32.2093C38.9414 35.0358 35.5023 36.7236 31.7461 36.9621ZM52.3901 9.15814H48.3708C47.1531 9.15814 46.1624 8.16853 46.1624 6.95346L46.167 3.22278L52.3901 9.15814ZM62.5409 47.5066L59.2664 51.2267C59.0998 51.4162 58.868 51.5295 58.6139 51.5457C58.3593 51.5624 58.1153 51.4788 57.9261 51.3124L46.0068 40.8099C45.6135 40.4638 45.5752 39.8621 45.9213 39.4683L49.1958 35.748C49.3626 35.5584 49.595 35.4451 49.8501 35.429C50.1053 35.4138 50.3472 35.4956 50.536 35.6624L62.4573 46.1634C62.8439 46.5051 62.8827 47.1197 62.5409 47.5066Z" fill="#187CB6"/>
</g>
<defs>
<clipPath id="clip0">
<rect width="66" height="66" fill="white"/>
</clipPath>
</defs>
</svg>
