<svg width="68" height="68" viewBox="0 0 68 68" fill="none" xmlns="http://www.w3.org/2000/svg">
<g clip-path="url(#clip0)">
<path d="M24.815 31.8827C25.6745 32.7732 26.8207 33.264 28.0428 33.2648H28.0458C29.2685 33.2648 30.4164 32.7744 31.2783 31.8836C31.6553 31.494 31.6451 30.8727 31.2556 30.4958C30.8662 30.1188 30.2447 30.129 29.868 30.5185C29.3791 31.0236 28.732 31.3018 28.0457 31.3018C28.0451 31.3018 28.0445 31.3018 28.044 31.3018C27.3588 31.3014 26.7135 31.0235 26.227 30.5194C25.8506 30.1293 25.2293 30.1183 24.8393 30.4948C24.4495 30.8714 24.4385 31.4927 24.815 31.8827Z" fill="#187CB6"/>
<path d="M21.8415 24.2709C22.2008 23.9217 22.7879 23.9225 23.1502 24.2726C23.3406 24.4567 23.5865 24.5483 23.832 24.5483C24.0889 24.5483 24.3452 24.4481 24.5379 24.2488C24.9145 23.8589 24.9039 23.2376 24.514 22.861C23.3979 21.7823 21.5857 21.7831 20.4741 22.8627C20.0854 23.2404 20.0762 23.8617 20.4539 24.2506C20.8317 24.6394 21.4528 24.6484 21.8415 24.2709Z" fill="#187CB6"/>
<path d="M32.4661 24.5479C32.7116 24.5479 32.9574 24.4563 33.1479 24.2722C33.5101 23.9223 34.0972 23.9214 34.4566 24.2705C34.8453 24.6482 35.4667 24.639 35.8443 24.2502C36.2218 23.8613 36.2126 23.24 35.8239 22.8623C34.7123 21.7828 32.9002 21.7822 31.7841 22.8606C31.3943 23.2374 31.3837 23.8587 31.7603 24.2484C31.9528 24.4478 32.2093 24.5479 32.4661 24.5479Z" fill="#187CB6"/>
<path d="M64.7793 48.9009C64.5732 48.3996 63.9999 48.1602 63.4985 48.3664C62.9971 48.5727 62.7579 49.1461 62.964 49.6474C64.7369 53.9594 63.7551 58.8742 60.4622 62.1688C58.2943 64.3401 55.4121 65.5361 52.3466 65.5368C52.3458 65.5368 52.345 65.5368 52.3444 65.5368C49.2778 65.5368 46.394 64.3407 44.2238 62.1688C39.7459 57.684 39.7459 50.3868 44.2235 45.9022C45.4651 44.6597 46.9407 43.7382 48.5497 43.1758C48.5666 43.1704 48.5834 43.1653 48.6 43.1592C49.7892 42.7496 51.0501 42.5342 52.3444 42.5342H52.3466C55.4121 42.5347 58.2943 43.7307 60.4622 45.9021C60.8451 46.2856 61.4666 46.286 61.85 45.903C62.2334 45.52 62.234 44.8985 61.8509 44.515C59.3124 41.9725 55.9371 40.5719 52.347 40.5713C52.3461 40.5713 52.3452 40.5713 52.3443 40.5713C50.9955 40.5713 49.677 40.7689 48.4216 41.1503C46.4166 39.7458 44.0783 38.7148 41.7626 38.2144C41.3734 37.9222 40.6549 37.3633 39.8396 36.729C39.1713 36.2091 38.4435 35.643 37.7567 35.1143C39.9302 32.9974 41.6126 30.361 42.3821 27.6773C43.2643 27.4961 44.157 27.0103 44.8793 26.2973C45.7726 25.4151 46.2851 24.3064 46.2851 23.2552V21.8789C46.2851 20.5727 45.2235 19.5101 43.9185 19.5101H42.8293V19.4863V17.4869V12.9647C42.8293 10.3167 41.8013 7.79807 39.8567 5.68103C38.1636 3.83775 35.7738 2.32684 33.1277 1.42653C30.6499 0.583273 28.0288 0.302972 25.748 0.637056C23.3486 0.988283 21.3908 1.98543 20.0567 3.52996C17.3457 3.91979 13.3058 5.98135 13.4438 14.825C13.4451 14.9126 13.4464 14.9845 13.4464 15.0385V17.2866V19.5101H12.361C11.0539 19.5101 9.99058 20.5727 9.99058 21.8789V23.2552C9.99058 24.3062 10.503 25.4151 11.3963 26.2973C12.1185 27.0105 13.0112 27.4962 13.8935 27.6774C14.6747 30.4019 16.3967 33.0781 18.6183 35.2108C17.9614 35.7171 17.2737 36.2523 16.6415 36.7442C15.8354 37.3716 15.1247 37.9248 14.7388 38.2144C12.2814 38.7454 9.79664 39.8745 7.71794 41.4107C7.28205 41.7329 7.18979 42.3474 7.51197 42.7835C7.70446 43.0439 8.00125 43.1817 8.30197 43.1817C8.50454 43.1817 8.70907 43.1191 8.88442 42.9894C10.6797 41.6626 12.8094 40.6748 14.9253 40.1824L20.7085 44.4896C20.7302 44.5058 20.7526 44.5211 20.7757 44.5355C20.9924 44.6706 21.1343 44.7813 21.2483 44.8704C21.5996 45.1448 21.9013 45.2526 22.1684 45.2526C22.6148 45.2526 22.9648 44.9509 23.2888 44.6202C23.458 44.4475 23.7005 44.2008 24.0695 43.8692L24.6214 46.0402L21.2687 57.2271L21.2703 57.2213C21.1495 57.5475 21.172 57.8565 21.3343 58.1566L23.1753 61.6472H12.8571V55.2578C12.8571 54.7157 12.4176 54.2763 11.8757 54.2763C11.3337 54.2763 10.8944 54.7157 10.8944 55.2578V61.6472H4.74927C4.64104 61.6472 4.5374 61.6491 4.43847 61.6508C4.35459 61.6523 4.25553 61.6542 4.16786 61.6532C4.16537 61.612 4.1638 61.5628 4.1638 61.5047V51.0734C4.1638 49.2705 4.76628 47.5262 5.95461 45.889C6.27299 45.4502 6.1755 44.8365 5.73686 44.5181C5.29796 44.1996 4.68436 44.2971 4.36624 44.7359C2.92954 46.7153 2.20117 48.8475 2.20117 51.0733V61.5046C2.20117 61.9763 2.25718 62.6584 2.74162 63.1344C3.17804 63.5633 3.71731 63.6163 4.22321 63.6163C4.30762 63.6163 4.39123 63.6148 4.47315 63.6134C4.56096 63.6118 4.65308 63.6103 4.74927 63.6103H24.8005C24.8014 63.6103 24.8024 63.6104 24.8033 63.6104C24.8044 63.6104 24.8054 63.6103 24.8066 63.6103H31.473C31.474 63.6103 31.4751 63.6104 31.4762 63.6104C31.4772 63.6104 31.4781 63.6103 31.4791 63.6103H42.891C45.4259 66.119 48.7793 67.4999 52.3447 67.4998H52.3474C55.9375 67.4991 59.3128 66.0985 61.8511 63.5563C65.7049 59.7002 66.8543 53.9476 64.7793 48.9009ZM41.576 40.1822C43.1577 40.5503 44.7463 41.1957 46.1995 42.053C44.9733 42.6851 43.8389 43.5105 42.8352 44.515C38.1896 49.1678 37.6621 56.4063 41.2517 61.6474H33.103L34.9366 58.1657C35.1029 57.8579 35.126 57.5504 35.0043 57.2186L31.6542 46.0405L32.2486 43.7068C32.7237 44.122 33.0169 44.4202 33.2126 44.6201C33.5366 44.9507 33.8865 45.2525 34.333 45.2525C34.6001 45.2525 34.9017 45.1446 35.2531 44.8703C35.3671 44.7813 35.5089 44.6704 35.7256 44.5354C35.7487 44.521 35.7712 44.5057 35.7929 44.4895L41.576 40.1822ZM26.4026 45.0802L25.7127 42.3664L28.2508 40.0286L30.6072 42.199L29.8735 45.0802H26.4026ZM38.6346 38.2784C39.0339 38.589 39.3997 38.8735 39.7172 39.1193L34.6522 42.8917C34.5658 42.9462 34.4878 42.9982 34.4176 43.0466C34.1984 42.8272 33.8982 42.5376 33.4677 42.1649L32.3756 41.159C32.3709 41.1545 32.3662 41.1503 32.3615 41.146L30.444 39.3799C30.9158 39.2622 31.4034 39.1084 31.9165 38.9163C33.438 38.3484 34.9086 37.4908 36.2524 36.4335C37.0208 37.0229 37.8673 37.6812 38.6346 38.2784ZM43.9186 21.4729C44.1413 21.4729 44.3226 21.6549 44.3226 21.8788V23.2551C44.3226 23.7771 44.0153 24.3921 43.5005 24.9002C43.2843 25.1136 43.0455 25.295 42.7995 25.4379C42.8187 25.1926 42.8293 24.9505 42.8293 24.7128V21.4727H43.9186V21.4729ZM20.6517 5.43619C20.9249 5.41198 21.1756 5.27458 21.3429 5.05709C22.7693 3.20321 25.1576 2.46281 27.6794 2.46281C29.3033 2.46281 30.9829 2.77006 32.4958 3.28473C36.3574 4.59869 40.8668 7.92226 40.8668 12.9647V17.4866V18.5046H39.3294C37.1811 18.5046 35.8089 17.2159 34.2198 15.7237C32.3196 13.939 30.1658 11.9163 26.3507 11.9163H22.0171C18.8057 11.9163 18.2868 14.449 17.9081 16.2982C17.5001 18.2904 17.1901 19.3833 15.4091 19.4995V17.2863V15.0383C15.4091 14.9764 15.4079 14.8943 15.4063 14.7941C15.343 10.7424 16.2016 5.83008 20.6517 5.43619ZM11.9532 23.2551V21.8788C11.9532 21.6588 12.1399 21.4729 12.3608 21.4729H13.4463V24.713C13.4463 24.951 13.457 25.1936 13.4763 25.4395C13.2304 25.2961 12.9916 25.1139 12.7753 24.9003C12.2606 24.392 11.9532 23.7771 11.9532 23.2551ZM15.6314 26.5672C15.6307 26.5641 15.6298 26.5611 15.629 26.5579C15.483 25.915 15.4089 25.2941 15.4089 24.7128V21.4648C18.8865 21.2996 19.4525 18.5384 19.8307 16.6922C20.2575 14.6085 20.5388 13.8794 22.0169 13.8794H26.3506C29.3886 13.8794 31.0828 15.4704 32.8763 17.1546C34.6105 18.7835 36.4039 20.4676 39.3293 20.4676H40.8667V24.713C40.8667 25.2942 40.7928 25.915 40.6467 26.5579C40.6465 26.5589 40.6462 26.5598 40.6461 26.5607C40.6457 26.5627 40.645 26.5646 40.6446 26.5666C39.6491 30.9275 35.6034 35.445 31.2293 37.0779C30.0723 37.5111 29.0907 37.7129 28.1399 37.7129C27.1856 37.7129 26.2043 37.5113 25.0492 37.0773C20.6742 35.4455 16.6272 30.9283 15.6314 26.5672ZM23.0341 42.165C22.6036 42.5377 22.3033 42.8273 22.0841 43.0467C22.0138 42.9982 21.9359 42.9464 21.8496 42.8918L16.7844 39.1193C17.0966 38.8773 17.4557 38.5979 17.8471 38.2931C18.581 37.7219 19.3903 37.0921 20.1356 36.5199C21.4497 37.5374 22.8813 38.3637 24.3613 38.9158C24.9394 39.1329 25.485 39.2987 26.013 39.4213L23.9619 41.3105C23.9554 41.3164 23.9488 41.3223 23.9425 41.3284L23.0341 42.165ZM23.2254 57.535L26.3699 47.0431H29.9059L33.0505 57.5351L30.8849 61.6471H25.3944L23.2254 57.535Z" fill="#187CB6"/>
<path d="M52.3449 60.6349C52.8869 60.6349 53.3262 60.1955 53.3262 59.6535V50.789L55.4509 52.9167C55.6426 53.1087 55.8938 53.2046 56.1452 53.2046C56.3962 53.2046 56.6472 53.109 56.8386 52.9176C57.222 52.5346 57.2224 51.9132 56.8395 51.5296L53.0392 47.7236C53.0386 47.7229 53.0378 47.7223 53.0371 47.7216C53.0211 47.7056 53.0071 47.6931 52.994 47.6823C52.8208 47.5292 52.5941 47.4355 52.3448 47.4355C52.0906 47.4355 51.8598 47.533 51.6855 47.6915C51.6746 47.7004 51.663 47.7107 51.6507 47.7232L47.8469 51.5292C47.4638 51.9126 47.464 52.534 47.8473 52.9172C48.0388 53.1087 48.2898 53.2045 48.5409 53.2045C48.7922 53.2045 49.0433 53.1086 49.235 52.9169L51.3635 50.7872V59.6534C51.3636 60.1955 51.8029 60.6349 52.3449 60.6349Z" fill="#187CB6"/>
</g>
<defs>
<clipPath id="clip0">
<rect width="67" height="67" fill="white" transform="translate(0.5 0.5)"/>
</clipPath>
</defs>
</svg>
