<svg width="69" height="68" viewBox="0 0 69 68" fill="none" xmlns="http://www.w3.org/2000/svg">
<g clip-path="url(#clip0)">
<path d="M47.9673 21.675C47.9673 19.8125 48.3472 19.5689 49.2649 18.9805C49.3382 18.9335 49.413 18.8856 49.4884 18.8364C52.2578 17.0343 52.6298 14.2175 51.77 12.2252C50.9219 10.2599 48.6604 8.58823 45.5202 9.28271C44.6995 9.46453 42.7202 10.1302 42.0693 12.3775C41.916 12.9064 42.2269 13.4578 42.7637 13.6088C43.3002 13.7598 43.8598 13.4533 44.013 12.9244C44.3538 11.7476 45.3814 11.3554 45.9632 11.2267C48.1053 10.7524 49.428 11.8885 49.9098 13.005C50.4025 14.1468 50.2962 15.9237 48.3739 17.1746C48.3022 17.2213 48.2317 17.2663 48.1627 17.3107C46.8646 18.1429 45.9459 18.9431 45.9459 21.6752V22.3346C45.9459 22.8848 46.3985 23.3307 46.9567 23.3307C47.5149 23.3307 47.9674 22.8848 47.9674 22.3346V21.675H47.9673Z" fill="#187CB6"/>
<path d="M46.957 26.9524C46.3988 26.9524 45.9463 27.3982 45.9463 27.9485V28.2724C45.9463 28.8227 46.3988 29.2685 46.957 29.2685C47.5152 29.2685 47.9678 28.8227 47.9678 28.2724V27.9485C47.9678 27.3982 47.5152 26.9524 46.957 26.9524Z" fill="#187CB6"/>
<path d="M68.6228 29.5014C68.6144 29.4837 68.6057 29.4664 68.5962 29.4493L64.9434 22.7861L64.7072 22.357C65.2914 19.1903 64.9979 15.9233 63.8528 12.8841C62.13 8.31125 58.6752 4.69543 54.1244 2.70258C49.5737 0.709993 44.5361 0.606266 39.9398 2.41079C39.4213 2.61439 39.1683 3.19385 39.3749 3.70478C39.5815 4.21598 40.1693 4.46527 40.6878 4.26153C44.7741 2.65702 49.2546 2.75013 53.3037 4.52317C57.3527 6.29622 60.4262 9.51174 61.9578 13.5775C63.0149 16.3832 63.2564 19.4065 62.6559 22.3203C62.6086 22.5498 62.6449 22.7882 62.7581 22.9937L66.6541 30.0973L59.3489 30.7353L58.1724 30.8409C57.9554 30.8603 57.7506 30.9485 57.5885 31.092C56.0602 32.4457 54.3068 33.49 52.3764 34.1963C51.1646 34.6405 49.922 34.937 48.6703 35.089C48.6252 35.0916 48.5798 35.097 48.5342 35.1056C45.6245 35.4344 42.6696 34.9771 39.9386 33.7427C35.9896 31.9575 32.9823 28.7623 31.4708 24.7457C28.9888 18.1472 31.2291 10.5845 36.9191 6.35439C37.3646 6.02316 37.4534 5.39854 37.1173 4.95933C36.7812 4.52012 36.1475 4.43246 35.7017 4.76396C32.6242 7.05179 30.3157 10.3261 29.2013 13.9835C28.7779 15.3733 28.5291 16.7875 28.4512 18.2047C24.3361 17.778 20.1715 18.3791 16.3371 19.9689C15.8226 20.1822 15.581 20.7661 15.7974 21.2732C15.9599 21.6541 16.3348 21.8834 16.7294 21.8834C16.86 21.8834 16.9929 21.8583 17.1209 21.8051C20.7084 20.3178 24.6107 19.7707 28.4577 20.2071C28.5632 21.9754 28.9339 23.733 29.5754 25.4384C31.2748 29.9541 34.6559 33.5463 39.0959 35.5534C41.5244 36.6512 44.1096 37.2026 46.7033 37.2025C47.1244 37.2025 47.5459 37.1873 47.9669 37.1583C48.826 40.6263 48.8296 44.2741 47.9688 47.7619C46.5342 53.5771 42.8901 58.4929 37.7076 61.604C32.5257 64.7147 26.4261 65.6489 20.5322 64.2337C17.7298 63.561 15.1236 62.3936 12.7862 60.7637C12.6075 60.6391 12.3917 60.5764 12.1738 60.5811L2.36316 60.8559C2.30022 60.8563 2.24214 60.856 2.18891 60.8563C2.20548 60.8069 2.22152 60.7593 2.23621 60.7159C2.25036 60.674 2.26168 60.6313 2.27004 60.588L4.3403 49.9142C4.37265 49.7484 4.3616 49.5772 4.30823 49.4166C2.99454 45.4624 2.83026 41.2276 3.83332 37.1691C5.12208 31.9322 8.28597 27.3292 12.7421 24.2081C13.1971 23.8895 13.3038 23.2677 12.9805 22.8192C12.6571 22.3708 12.0261 22.2655 11.5713 22.5842C6.71811 25.9832 3.27256 30.9962 1.86924 36.6986C0.798127 41.0325 0.949873 45.5527 2.30656 49.7889L0.297203 60.149C0.0202602 60.9698 -0.184583 61.6235 0.257987 62.2238C0.726566 62.8595 1.53408 62.8538 2.38876 62.8477C2.39591 62.8475 2.40291 62.8474 2.41006 62.8472L11.898 62.5815C14.372 64.2571 17.1141 65.4634 20.0541 66.169C22.0094 66.6384 23.9849 66.8704 25.9474 66.8704C30.4267 66.8703 34.8349 65.6608 38.7593 63.3051C44.4027 59.9174 48.371 54.5643 49.9331 48.2324C50.8523 44.5088 50.8645 40.6171 49.9826 36.906C51.0278 36.7164 52.064 36.436 53.0807 36.0634C55.1437 35.3086 57.0273 34.21 58.6849 32.7951L67.1242 32.056C67.1316 32.0553 67.1392 32.0545 67.1466 32.0537C67.7746 31.9849 68.4864 31.907 68.8394 31.2874C69.1834 30.6842 68.911 30.1096 68.6228 29.5014Z" fill="#187CB6"/>
<path d="M29.7732 43.2162C29.7732 41.2957 28.1888 39.7332 26.2413 39.7332C24.2916 39.7332 22.7056 41.2957 22.7056 43.2162C22.7056 45.1366 24.2916 46.699 26.2413 46.699C28.1888 46.699 29.7732 45.1366 29.7732 43.2162ZM24.7269 43.2162C24.7269 42.3941 25.4063 41.7253 26.2413 41.7253C27.0741 41.7253 27.7517 42.3941 27.7517 43.2162C27.7517 44.0381 27.0741 44.7069 26.2413 44.7069C25.4063 44.7069 24.7269 44.0381 24.7269 43.2162Z" fill="#187CB6"/>
<path d="M11.3137 43.2162C11.3137 45.1366 12.8981 46.699 14.8456 46.699C16.7931 46.699 18.3775 45.1366 18.3775 43.2162C18.3775 41.2957 16.7931 39.7332 14.8456 39.7332C12.8981 39.7332 11.3137 41.2957 11.3137 43.2162ZM14.8456 41.7253C15.6785 41.7253 16.3561 42.3941 16.3561 43.2162C16.3561 44.0381 15.6785 44.7069 14.8456 44.7069C14.0127 44.7069 13.3351 44.0381 13.3351 43.2162C13.335 42.3942 14.0126 41.7253 14.8456 41.7253Z" fill="#187CB6"/>
<path d="M41.1636 43.2162C41.1636 41.2957 39.5792 39.7332 37.6317 39.7332C35.6842 39.7332 34.0997 41.2957 34.0997 43.2162C34.0997 45.1366 35.6842 46.699 37.6317 46.699C39.5792 46.699 41.1636 45.1366 41.1636 43.2162ZM36.1212 43.2162C36.1212 42.3941 36.7988 41.7253 37.6317 41.7253C38.4645 41.7253 39.1421 42.3941 39.1421 43.2162C39.1421 44.0381 38.4645 44.7069 37.6317 44.7069C36.7988 44.7069 36.1212 44.0381 36.1212 43.2162Z" fill="#187CB6"/>
</g>
<defs>
<clipPath id="clip0">
<rect width="69" height="68" fill="white"/>
</clipPath>
</defs>
</svg>
