<svg width="68" height="66" viewBox="0 0 68 66" fill="none" xmlns="http://www.w3.org/2000/svg">
<g clip-path="url(#clip0)">
<path d="M26.534 37.2547C26.8147 37.2547 27.0936 37.1402 27.2907 36.9174L32.3014 31.2465C32.4563 31.0712 32.5414 30.8479 32.5414 30.6171V20.0098C32.5414 19.4757 32.0954 19.043 31.5453 19.043C30.9952 19.043 30.5492 19.4757 30.5492 20.0098V30.2592L25.7785 35.6585C25.4204 36.0639 25.4686 36.6743 25.8862 37.0218C26.074 37.1781 26.3045 37.2547 26.534 37.2547Z" fill="#187CB6"/>
<path d="M65.5962 47.2447H64.9747C64.8312 46.8438 64.6639 46.4481 64.474 46.0601L64.9109 45.6347C65.8473 44.7259 65.8473 43.2474 64.9109 42.3386L62.268 39.7733C62.1152 39.6251 61.9466 39.5014 61.7686 39.4008C61.8775 39.0476 61.9798 38.6918 62.0754 38.3335C63.2641 33.8863 63.4022 29.1464 62.4778 24.6258C62.3702 24.1025 61.8456 23.7622 61.3064 23.8666C60.7659 23.971 60.4166 24.4802 60.5228 25.0035C61.5136 29.84 61.2241 34.7075 59.7552 39.2294C59.4324 39.3415 59.1309 39.5233 58.8719 39.7733L58.435 40.1974C58.0339 40.0144 57.6275 39.852 57.2145 39.7115V39.1095C57.2145 37.9983 56.4123 37.0663 55.3431 36.833C56.0298 34.349 56.3007 31.7452 56.128 29.1026C55.711 22.7296 52.7612 16.8954 47.8221 12.6751C43.1511 8.6809 37.3448 6.72088 31.5607 6.72036C31.5099 6.71263 31.4584 6.70747 31.4055 6.70747C31.3499 6.70747 31.2956 6.71301 31.2424 6.72152C24.515 6.80467 17.8463 9.53941 13.0591 14.8148C12.6952 15.2144 12.735 15.8254 13.1481 16.1786C13.5611 16.5318 14.1893 16.4931 14.5532 16.0922C18.7504 11.4678 24.5203 8.96874 30.4096 8.68115V10.9847C30.4096 11.5188 30.8556 11.9515 31.4057 11.9515C31.9558 11.9515 32.4018 11.5188 32.4018 10.9847V8.668C37.4365 8.84899 42.4393 10.6489 46.506 14.1254C51.0456 18.0053 53.7575 23.3678 54.14 29.2252C54.1521 29.4099 54.1612 29.5943 54.1687 29.7785H51.7723C51.2222 29.7785 50.7762 30.2112 50.7762 30.7453C50.7762 31.2793 51.2221 31.7121 51.7723 31.7121H54.1602C54.075 33.4407 53.7826 35.1376 53.2913 36.7751H51.076C49.7519 36.7751 48.6761 37.8218 48.6761 39.1096V39.7812C48.2843 39.9217 47.8978 40.0816 47.5193 40.2607L47.0172 39.7735C46.0809 38.8647 44.5576 38.8647 43.6212 39.7735L40.9783 42.3387C40.0419 43.2475 40.0419 44.7261 40.9783 45.6348L41.5507 46.1917C41.39 46.5359 41.2439 46.8878 41.1151 47.2449H40.2943C38.9675 47.2449 37.889 48.289 37.889 49.5742V51.7037C36.6107 52.0642 35.3041 52.3119 33.9863 52.4504V50.4254C33.9863 49.8913 33.5404 49.4586 32.9902 49.4586C32.4401 49.4586 31.9942 49.8913 31.9942 50.4254V52.5744C26.5241 52.6832 20.9993 50.8871 16.5795 47.1097C11.8481 43.0648 9.21801 37.3985 8.94216 31.5844H11.3172C11.8674 31.5844 12.3133 31.1517 12.3133 30.6176C12.3133 30.0836 11.8674 29.6508 11.3172 29.6508H8.93724C9.08201 26.2555 10.0355 22.8654 11.8481 19.7717C12.1204 19.3077 11.953 18.7173 11.4749 18.4543C10.9968 18.1901 10.3885 18.3525 10.1175 18.8165C8.02416 22.3871 6.93005 26.4448 6.91491 30.5426C6.91292 30.5675 6.91106 30.5924 6.91106 30.6176C6.91106 30.6439 6.91305 30.6699 6.91517 30.6955C6.91876 31.9467 7.02169 33.2011 7.22914 34.446C8.13625 39.8935 10.9891 44.9066 15.2642 48.561C19.9364 52.5544 25.7443 54.5151 31.5294 54.5151C31.9791 54.5151 32.4286 54.5004 32.8776 54.4765C32.9149 54.4806 32.9527 54.4832 32.991 54.4832C33.067 54.4832 33.1406 54.4742 33.2116 54.4586C34.8075 54.3533 36.3938 54.0992 37.9443 53.6965C38.178 54.7445 39.1436 55.5321 40.2951 55.5321H41.1849C41.3137 55.8686 41.4572 56.1999 41.6152 56.526L40.9791 57.1409C40.7254 57.3884 40.5394 57.6758 40.4239 57.9839C38.1754 58.6671 35.8261 59.0925 33.4155 59.2408C32.7754 59.2807 32.1379 59.3001 31.503 59.3001C24.3153 59.3001 17.457 56.7928 12.0145 52.1407C-0.212474 41.6889 -1.40115 23.529 9.36583 11.6607C20.1341 -0.206158 38.8444 -1.35987 51.0723 9.0903C54.7392 12.2227 57.5667 16.2135 59.2521 20.631C59.4433 21.1312 60.0157 21.3877 60.5324 21.2021C61.0477 21.0165 61.312 20.4596 61.1207 19.9594C59.3211 15.2429 56.3024 10.9825 52.3898 7.63882C46.0666 2.23661 37.9545 -0.454948 29.545 0.0632555C21.1367 0.581459 13.4391 4.24614 7.87036 10.3821C2.30432 16.5192 -0.468802 24.3939 0.0651038 32.5548C0.59901 40.7158 4.37474 48.1871 10.6966 53.592C16.507 58.5586 23.8275 61.2334 31.5 61.2334C32.1773 61.2334 32.8586 61.2128 33.5413 61.1702C35.9638 61.0207 38.3277 60.6108 40.5975 59.9546C40.6997 60.1274 40.8272 60.2898 40.9787 60.4368L43.6216 63.002C44.5579 63.9108 46.0813 63.9108 47.0176 63.0033L47.6538 62.3871C47.9898 62.5405 48.3298 62.6784 48.6765 62.8022V63.6671C48.6765 64.9536 49.7522 66.0003 51.0764 66.0003H54.8149C56.1377 66.0003 57.2148 64.9536 57.2148 63.6671V62.8731C57.5801 62.748 57.9427 62.6062 58.2999 62.4464L58.8723 63.002C59.8087 63.9108 61.332 63.9108 62.2684 63.002L64.9113 60.4368C65.8477 59.528 65.8477 58.0494 64.9113 57.1406L64.4106 56.6546C64.5952 56.2873 64.7599 55.9134 64.9047 55.5319H65.5966C66.9221 55.5319 68.0005 54.4864 68.0005 53.2025V49.574C68.0002 48.2888 66.9217 47.2447 65.5962 47.2447ZM66.008 53.2027C66.008 53.4166 65.8194 53.5984 65.5962 53.5984H64.1884C63.7488 53.5984 63.361 53.8781 63.2348 54.2868C63.0117 55.0035 62.7036 55.6996 62.3198 56.357C62.0993 56.736 62.1657 57.2104 62.4818 57.5184L63.5031 58.5084C63.6598 58.6606 63.6598 58.9184 63.5031 59.0705L60.8601 61.6357C60.7034 61.7878 60.4378 61.7878 60.2811 61.6357L59.204 60.5903C58.8945 60.2899 58.4204 60.2216 58.0339 60.4188C57.3592 60.7656 56.6566 61.0402 55.9474 61.2348C55.5184 61.3534 55.2223 61.7324 55.2223 62.1655V63.6673C55.2223 63.8838 55.035 64.0669 54.8145 64.0669H51.076C50.8542 64.0669 50.6683 63.8838 50.6683 63.6673V62.1062C50.6683 61.6808 50.3801 61.3044 49.959 61.1807C49.2658 60.9783 48.5858 60.7024 47.939 60.3595C47.7889 60.2796 47.6242 60.2409 47.4622 60.2409C47.2045 60.2409 46.9495 60.3376 46.7583 60.5233L45.6094 61.6357C45.4527 61.7878 45.1871 61.7878 45.0304 61.6357L42.6211 59.2974L42.3874 59.0705C42.2307 58.9171 42.2307 58.6606 42.3861 58.5084L43.5349 57.3986C43.7261 57.2129 43.8258 56.968 43.8271 56.7192C43.8284 56.5594 43.7886 56.397 43.7049 56.2487C43.3503 55.6222 43.0647 54.9609 42.8549 54.2868C42.7287 53.8781 42.3409 53.5984 41.9013 53.5984H40.2943C40.0698 53.5984 39.8812 53.4166 39.8812 53.2027V53.1086V51.0435V49.574C39.8812 49.3587 40.0698 49.1782 40.2943 49.1782H41.8442C42.2904 49.1782 42.6822 48.8908 42.8031 48.4744C43.0076 47.7757 43.2892 47.0938 43.6398 46.448C43.8443 46.0729 43.7726 45.6127 43.4645 45.3123L42.3874 44.2682C42.2307 44.1161 42.2307 43.8583 42.3874 43.7061L45.0304 41.1409C45.1871 40.9888 45.4527 40.9888 45.6094 41.1409L46.6294 42.1309C46.9455 42.4377 47.4343 42.5022 47.8234 42.2895C48.5047 41.9156 49.2233 41.6166 49.9604 41.4013C50.3801 41.2775 50.6683 40.9011 50.6683 40.4758V39.1093C50.6683 38.8915 50.8542 38.7085 51.076 38.7085H52.6073H54.7376H54.8147C55.0351 38.7085 55.2224 38.8915 55.2224 39.1093V40.4203C55.2224 40.8534 55.5199 41.235 55.9502 41.351C56.7019 41.556 57.4417 41.8499 58.1496 42.2263C58.2704 42.2908 58.4019 42.3281 58.5334 42.3397C58.8216 42.3681 59.1165 42.2701 59.3316 42.0613L60.2812 41.1409C60.4379 40.9888 60.7022 40.9888 60.8603 41.1409L61.0914 41.3652L63.5033 43.7061C63.66 43.8583 63.66 44.1161 63.5033 44.2682L62.5536 45.1886C62.2415 45.4928 62.1725 45.9594 62.385 46.3371C62.7715 47.0229 63.0743 47.7409 63.2854 48.4718C63.4063 48.8895 63.7981 49.1782 64.2443 49.1782H65.5964C65.8195 49.1782 66.0081 49.3587 66.0081 49.574V53.2027H66.008Z" fill="#187CB6"/>
<path d="M52.9471 46.9775C50.4403 46.9775 48.4009 48.9569 48.4009 51.39C48.4009 53.821 50.4403 55.7988 52.9471 55.7988C55.4518 55.7988 57.4896 53.8212 57.4896 51.39C57.4896 48.957 55.4518 46.9775 52.9471 46.9775ZM52.9471 53.8653C51.5389 53.8653 50.3931 52.7549 50.3931 51.39C50.3931 50.0232 51.5389 48.9111 52.9471 48.9111C54.3533 48.9111 55.4974 50.0232 55.4974 51.39C55.4974 52.7549 54.3533 53.8653 52.9471 53.8653Z" fill="#187CB6"/>
</g>
<defs>
<clipPath id="clip0">
<rect width="68" height="66" fill="white"/>
</clipPath>
</defs>
</svg>
