<svg width="70" height="70" viewBox="0 0 70 70" fill="none" xmlns="http://www.w3.org/2000/svg">
<path d="M23.3081 24.5225C23.4723 24.3583 23.6899 24.268 23.9209 24.268C24.152 24.268 24.3695 24.3583 24.5337 24.5225C24.734 24.7228 24.9963 24.8229 25.2588 24.8229C25.5212 24.8229 25.7836 24.7228 25.9839 24.5227C26.3843 24.1222 26.3844 23.4731 25.984 23.0725C25.4325 22.5208 24.6998 22.217 23.9208 22.217C23.1419 22.217 22.4092 22.5208 21.8577 23.0725C21.4574 23.4731 21.4574 24.1222 21.8578 24.5227C22.2584 24.923 22.9075 24.9231 23.3081 24.5225Z" fill="#187CB6"/>
<path d="M34.6325 24.5225C34.7967 24.3583 35.015 24.268 35.2473 24.268C35.4796 24.268 35.6979 24.3583 35.8621 24.5225C36.0623 24.7228 36.3248 24.8229 36.5873 24.8229C36.8497 24.8229 37.112 24.7228 37.3123 24.5227C37.7128 24.1222 37.7129 23.4731 37.3124 23.0725C36.7609 22.5208 36.0276 22.217 35.2474 22.217C34.4673 22.217 33.734 22.5208 33.1824 23.0725C32.782 23.4729 32.7821 24.1222 33.1826 24.5227C33.5828 24.9231 34.232 24.9231 34.6325 24.5225Z" fill="#187CB6"/>
<path d="M24.271 30.8951C24.271 32.3779 24.8847 33.6807 25.9991 34.5633C26.9568 35.3218 28.2294 35.7396 29.5824 35.7396C32.2218 35.7396 34.8939 34.0756 34.8939 30.8951C34.8939 29.8561 34.0487 29.0107 33.0098 29.0107H26.1589C25.1179 29.0107 24.271 29.8561 24.271 30.8951ZM32.8391 31.0617C32.7386 33.1304 30.7625 33.6889 29.5825 33.6889C28.4025 33.6889 26.4263 33.1304 26.3258 31.0617H32.8391Z" fill="#187CB6"/>
<path d="M64.9569 52.1168H64.4702C64.3526 51.786 64.2187 51.4606 64.071 51.142L64.4128 50.8002C65.3097 49.902 65.311 48.4377 64.4114 47.5312L61.997 45.1208C61.5622 44.686 60.9839 44.4468 60.3659 44.4468C59.748 44.4468 59.1683 44.686 58.7335 45.1208L58.3931 45.4626C58.0745 45.3136 57.7491 45.181 57.4169 45.062V44.5767C57.4169 43.3024 56.3819 42.2661 55.1077 42.2661H51.6964C51.475 42.2661 51.2603 42.2976 51.0566 42.3564C48.8906 40.7375 46.2859 39.5372 43.6864 38.9772C43.2831 38.6748 42.5401 38.0977 41.6975 37.4431C41.0096 36.9085 40.2606 36.3268 39.5532 35.7829C41.7973 33.5976 43.5349 30.8781 44.3318 28.1097C45.2448 27.9209 46.1684 27.4175 46.9158 26.6796C47.8425 25.7647 48.3739 24.6152 48.3739 23.5255V22.1068C48.3739 20.7507 47.269 19.6474 45.9108 19.6474H44.7969V19.6336V17.5668V12.8925C44.7969 10.1548 43.7338 7.55076 41.7227 5.36176C39.9721 3.45658 37.5008 1.89416 34.7641 0.962148C32.1971 0.0879677 29.4809 -0.20379 27.1161 0.141425C24.6293 0.50414 22.5998 1.53527 21.2164 3.13338C18.4075 3.53656 14.2255 5.6691 14.3703 14.8138C14.3717 14.905 14.373 14.9796 14.373 15.0358V17.3595V19.6471H13.2554C11.8994 19.6471 10.7962 20.7504 10.7962 22.1065V23.5253C10.7962 24.6171 11.3275 25.7676 12.2538 26.6821C12.9998 27.4187 13.9221 27.921 14.8346 28.1096C15.6437 30.92 17.4219 33.6807 19.7162 35.883C19.065 36.3846 18.3842 36.9132 17.7582 37.3999C16.89 38.0753 16.1244 38.67 15.7129 38.9776C13.0564 39.5518 10.3903 40.7905 8.18091 42.4805C7.73111 42.825 7.64634 43.469 7.98951 43.9188C8.19185 44.1826 8.49673 44.3207 8.80572 44.3207C9.0231 44.3207 9.24185 44.2524 9.42779 44.1102C11.3077 42.6719 13.6457 41.5643 15.9084 41.0339L21.8913 45.4801C21.9132 45.4965 21.9365 45.5115 21.9597 45.5266C22.1826 45.666 22.3288 45.7795 22.4451 45.8711C22.8115 46.1582 23.1259 46.2703 23.4048 46.2703C23.8697 46.2703 24.2347 45.9559 24.5738 45.6114C24.746 45.4364 24.9935 45.1848 25.3667 44.8498L25.9355 47.0729L22.4668 58.6273C22.3438 58.965 22.3684 59.2944 22.5393 59.6075L24.4287 63.1911H13.778V56.6011C13.778 56.0351 13.3187 55.5757 12.7527 55.5757C12.1866 55.5757 11.7273 56.0351 11.7273 56.6011V63.1911H5.38037C5.26826 63.1911 5.16025 63.1924 5.05771 63.1938C4.97431 63.1952 4.87587 63.1979 4.78701 63.1965C4.78564 63.1569 4.78427 63.1118 4.78427 63.0584V52.2752C4.78427 50.4636 5.37626 48.7053 6.54384 47.0496C6.8706 46.5875 6.75986 45.9477 6.29775 45.6209C5.83427 45.2942 5.19443 45.4049 4.86904 45.867C3.45126 47.8754 2.73349 50.0316 2.73349 52.2752V63.0584C2.73349 63.5465 2.79228 64.252 3.2954 64.7469C3.82451 65.2664 4.4999 65.2555 5.09462 65.2446C5.18486 65.2432 5.28056 65.2418 5.38037 65.2418H26.1266H26.1294H33.0365H33.0393H42.9024L44.8055 67.145C45.2403 67.5797 45.82 67.8204 46.438 67.8204C47.0559 67.8204 47.6343 67.5797 48.069 67.145L48.5927 66.6227C48.8511 66.743 49.1163 66.8538 49.3856 66.9549V67.6891C49.3856 68.9633 50.422 69.9997 51.6962 69.9997H55.1074C56.3817 69.9997 57.4166 68.9633 57.4166 67.6891V67.0219C57.7037 66.918 57.9881 66.8045 58.267 66.6788L58.7332 67.145C59.168 67.5797 59.7477 67.8204 60.3657 67.8204C60.9836 67.8204 61.5619 67.5797 61.9967 67.145L64.4125 64.7305C65.3121 63.8295 65.3121 62.3666 64.4125 61.4655L64.0119 61.0663C64.1555 60.7655 64.2867 60.4607 64.403 60.1489H64.9567C66.2295 60.1489 67.2658 59.1126 67.2658 57.8398V54.4271C67.2663 53.1532 66.2299 52.1168 64.9569 52.1168ZM44.7968 25.0361V21.698H45.9106C46.134 21.698 46.3229 21.8852 46.3229 22.1067V23.5254C46.3229 24.0623 46.0058 24.6958 45.4747 25.2202C45.2562 25.4358 45.0154 25.6201 44.7674 25.7661C44.7863 25.5193 44.7968 25.2754 44.7968 25.0361ZM40.4392 39.0624C40.8475 39.3797 41.2223 39.6708 41.5482 39.9229L36.3182 43.8099C36.2315 43.8646 36.1532 43.9167 36.0823 43.9658C35.8557 43.7395 35.5459 43.4416 35.1034 43.0592L33.9778 42.024C33.9699 42.0163 33.9617 42.0089 33.9535 42.0017L31.9904 40.1962C32.4712 40.0753 32.9694 39.9193 33.4949 39.7244C35.0687 39.1377 36.5897 38.2525 37.98 37.1609C38.7734 37.7683 39.6469 38.447 40.4392 39.0624ZM32.1256 43.1067L31.3727 46.0695H27.7946L27.0823 43.2832L29.7014 40.8771L32.1256 43.1067ZM21.8364 5.12551C22.122 5.10035 22.3839 4.95693 22.5589 4.72984C24.0339 2.81537 26.5026 2.0507 29.11 2.0507C30.7934 2.0507 32.5346 2.36967 34.1028 2.90355C38.0899 4.26131 42.7459 7.69199 42.7459 12.8925V17.5666V18.6079H41.1605C38.9422 18.6079 37.5242 17.2779 35.8821 15.7378C33.9148 13.8929 31.6852 11.8018 27.7348 11.8018H23.2494C19.9178 11.8018 19.3798 14.4233 18.9869 16.3377C18.5668 18.3849 18.2472 19.5105 16.4233 19.6353V17.3595V15.0358C16.4233 14.9714 16.422 14.8859 16.4204 14.7814C16.3542 10.5992 17.2402 5.52924 21.8364 5.12551ZM12.8466 23.5254V22.1067C12.8466 21.8813 13.0298 21.698 13.255 21.698H14.3726V25.0361C14.3726 25.2773 14.3829 25.5216 14.4012 25.768C14.1531 25.6222 13.9123 25.4382 13.6941 25.2228C13.1634 24.6988 12.8466 24.0643 12.8466 23.5254ZM16.6471 26.9406C16.4987 26.2882 16.4234 25.6474 16.4234 25.036V21.6891C20.0187 21.5122 20.6043 18.6585 20.996 16.7499C21.4363 14.6037 21.7263 13.8527 23.2494 13.8527H27.7348C30.8739 13.8527 32.6251 15.4951 34.479 17.2337C36.2746 18.9176 38.1311 20.6587 41.1605 20.6587H42.7459V25.036C42.7459 25.6361 42.6693 26.2769 42.5185 26.9401C41.4919 31.4452 37.3045 36.115 32.7799 37.8018C31.5719 38.25 30.5559 38.4586 29.5826 38.4586C28.6094 38.4586 27.5935 38.25 26.3869 37.8024C21.861 36.1151 17.6736 31.4454 16.6471 26.9406ZM25.257 42.1757C25.2474 42.1853 25.2364 42.1949 25.2269 42.2045L24.2958 43.059C23.8542 43.4418 23.5439 43.7398 23.3169 43.9654C23.2458 43.9162 23.1679 43.8642 23.0818 43.8095L17.8521 39.9225C18.198 39.6545 18.5959 39.3469 19.0156 39.0201C19.7492 38.4502 20.5571 37.8221 21.3017 37.2506C22.6608 38.3009 24.1416 39.1541 25.6723 39.7248C26.2661 39.945 26.8246 40.1143 27.363 40.2402L25.257 42.1757ZM42.3882 61.4658C41.9179 61.9402 41.6937 62.5705 41.7197 63.1912H34.7387L36.6377 59.594C36.8824 59.125 36.7443 58.7504 36.6992 58.626L35.6096 54.9987C35.4469 54.456 34.8754 54.1483 34.3326 54.311C33.7912 54.4737 33.4836 55.0452 33.6463 55.588L34.6566 58.9541L32.4186 63.1912H26.7473L24.5106 58.95L27.7619 48.1203H31.3933L32.2109 51.0448C32.338 51.4974 32.7496 51.794 33.198 51.794C33.2896 51.794 33.3826 51.7817 33.4742 51.7558C34.0197 51.604 34.3382 51.038 34.1851 50.4925L33.2322 47.0826L33.8423 44.6807C34.3255 45.103 34.6256 45.4076 34.8266 45.6122C35.1647 45.9563 35.5297 46.2703 35.995 46.2703C36.2736 46.2703 36.5881 46.1577 36.9542 45.8717C37.0716 45.7799 37.2178 45.6658 37.4405 45.5267C37.464 45.5121 37.487 45.4964 37.5093 45.4798L43.4915 41.0339C45.6043 41.5231 47.7207 42.4735 49.5336 43.7673C49.4379 44.0189 49.3859 44.2923 49.3859 44.5767V45.1304C49.0756 45.2466 48.7693 45.3765 48.4699 45.52L48.0693 45.1208C47.6345 44.686 47.0562 44.4468 46.4382 44.4468C45.8203 44.4468 45.242 44.686 44.8072 45.1194L42.3886 47.5353C41.4931 48.4376 41.4931 49.9019 42.3914 50.8002L42.859 51.2678C42.7332 51.5467 42.6183 51.8297 42.5144 52.1168H41.8472C40.5744 52.1168 39.538 53.1532 39.538 54.4274V57.84C39.538 59.1129 40.5744 60.1492 41.8472 60.1492H42.5814C42.6826 60.4185 42.7933 60.6838 42.9136 60.9422L42.3882 61.4658ZM65.2153 57.84C65.2153 57.9781 65.095 58.0984 64.9569 58.0984H63.6691C63.2165 58.0984 62.8173 58.3951 62.686 58.8285C62.4851 59.4971 62.2089 60.1451 61.863 60.7549C61.636 61.1555 61.7044 61.6586 62.0312 61.9853L62.9622 62.9164C63.0606 63.0148 63.0606 63.1816 62.9622 63.2801L60.5478 65.6959C60.4835 65.7601 60.4056 65.7697 60.3659 65.7697C60.3249 65.7697 60.2483 65.7601 60.1841 65.6959L59.1983 64.7101C58.8798 64.3916 58.3903 64.3178 57.9925 64.5297C57.3923 64.8496 56.7593 65.1039 56.1112 65.2885C55.671 65.4142 55.3661 65.8162 55.3661 66.2756V67.6892C55.3661 67.8273 55.2458 67.949 55.1077 67.949H51.6964C51.5584 67.949 51.4367 67.8273 51.4367 67.6892V66.2209C51.4367 65.7711 51.1427 65.3746 50.7148 65.242C50.7134 65.242 50.7121 65.2406 50.7107 65.2406C50.0695 65.0451 49.4543 64.7881 48.8841 64.475C48.7297 64.3902 48.5601 64.3492 48.392 64.3492C48.1254 64.3492 47.8629 64.4517 47.666 64.6486L47.074 65.242L46.6201 65.6959C46.5558 65.7601 46.4779 65.7697 46.4382 65.7697C46.3972 65.7697 46.3207 65.7601 46.2564 65.6959L45.8025 65.242L43.842 63.2801C43.816 63.2541 43.7968 63.224 43.7845 63.1912C43.749 63.0982 43.7681 62.9861 43.8406 62.9137L44.8865 61.8705C45.2091 61.5492 45.2816 61.0515 45.0615 60.6523C44.7498 60.0808 44.4914 59.467 44.2959 58.8258C44.1646 58.3937 43.7668 58.0984 43.3156 58.0984H41.8472C41.7091 58.0984 41.5888 57.9781 41.5888 57.84V54.4274C41.5888 54.2866 41.7064 54.1676 41.8472 54.1676H43.2623C43.7203 54.1676 44.1222 53.8641 44.248 53.4225C44.4326 52.7745 44.6869 52.1414 45.0068 51.5413C45.2187 51.1434 45.1449 50.6539 44.8263 50.3354L43.842 49.3497C43.7422 49.2512 43.7435 49.0817 43.8406 48.9832L46.2564 46.5715V46.5702C46.3207 46.5073 46.3972 46.4977 46.4382 46.4977C46.4779 46.4977 46.5558 46.5073 46.6201 46.5702L47.5511 47.5026C47.8765 47.828 48.3797 47.8963 48.7816 47.6694C49.3914 47.3248 50.0394 47.0473 50.7066 46.8463C51.14 46.7164 51.4367 46.3172 51.4367 45.8647V45.3698V44.5768C51.4367 44.436 51.5556 44.317 51.6964 44.317H53.2619H55.1076C55.2484 44.317 55.366 44.436 55.366 44.5768V45.8114C55.366 46.2707 55.6722 46.6727 56.1138 46.7985C56.8056 46.9926 57.4728 47.2661 58.0976 47.6106C58.4982 47.8307 58.9945 47.7596 59.3172 47.437L60.184 46.5702C60.2482 46.5073 60.3248 46.4977 60.3658 46.4977C60.4054 46.4977 60.4834 46.5073 60.5476 46.5715L62.9593 48.9791C63.0605 49.0817 63.0619 49.2512 62.9621 49.3497L62.0953 50.2164C61.774 50.5391 61.7029 51.0354 61.923 51.436C62.2662 52.0608 62.5396 52.7293 62.7351 53.4211C62.8595 53.8627 63.2629 54.1676 63.7222 54.1676H64.9568C65.0963 54.1676 65.2152 54.2866 65.2152 54.4274V57.84H65.2153Z" fill="#187CB6"/>
<path d="M53.4015 51.8677C51.0498 51.8677 49.1366 53.7812 49.1366 56.1332C49.1366 58.4851 51.0498 60.3987 53.4015 60.3987C55.7532 60.3987 57.6665 58.4851 57.6665 56.1332C57.6663 53.7812 55.7531 51.8677 53.4015 51.8677ZM53.4015 58.3477C52.1808 58.3477 51.1875 57.3542 51.1875 56.133C51.1875 54.9119 52.1808 53.9183 53.4015 53.9183C54.6223 53.9183 55.6156 54.9119 55.6156 56.133C55.6156 57.3543 54.6223 58.3477 53.4015 58.3477Z" fill="#187CB6"/>
</svg>
