<svg width="76" height="70" viewBox="0 0 76 70" fill="none" xmlns="http://www.w3.org/2000/svg">
<path d="M58.6678 35.3164C63.2935 35.0246 67.5283 32.9636 70.594 29.5108C76.9156 22.3889 76.2175 11.4889 69.0385 5.21305C65.9231 2.49022 61.9224 0.964886 57.7768 0.918443C57.7094 0.916992 57.6436 0.916992 57.5778 0.916992C53.5448 0.916992 49.6304 2.30736 46.5341 4.84441C46.0673 5.22756 46.0015 5.91404 46.3863 6.37701C46.7726 6.84143 47.4648 6.90674 47.9315 6.52359C53.6985 1.79925 61.9649 1.93437 67.5885 6.84579C73.8589 12.3277 74.4676 21.8503 68.9464 28.0724C66.2686 31.0884 62.5692 32.8896 58.529 33.1436C56.5287 33.2684 54.5633 33.0086 52.7196 32.3904C51.6865 32.0449 50.6914 31.5863 49.7505 31.0218C48.9778 30.5588 48.2419 30.0232 47.5511 29.4195C46.1097 28.1612 44.961 26.6865 44.1181 25.0843C43.606 24.1148 43.2064 23.0987 42.9225 22.0552C41.8674 18.1858 42.3855 13.9375 44.6273 10.3018C44.9433 9.78805 44.7794 9.11899 44.2629 8.80551C43.7464 8.49202 43.0703 8.65312 42.7542 9.16543C40.448 12.9071 39.7354 17.2134 40.4904 21.2628C39.1164 20.9261 37.7101 20.7577 36.3053 20.7577C31.4909 20.7577 26.6971 22.7288 23.2714 26.5865C19.8837 30.4036 18.5111 35.3036 19.0717 39.9959L12.2208 42.0929C11.7585 41.1228 10.7651 40.4485 9.61361 40.4485H2.88127C1.29242 40.4484 0 41.7324 0 43.3105V59.6977C0 61.2737 1.29242 62.5558 2.88127 62.5558H9.61361C10.8746 62.5558 11.9463 61.7491 12.3379 60.6305L21.1611 62.1496C21.224 62.1597 21.2869 62.1655 21.3498 62.1655C21.8737 62.1655 22.3376 61.7925 22.4298 61.2628C22.5337 60.6707 22.1328 60.1061 21.5357 60.0044L12.4987 58.4484V44.2871L19.4694 42.1524L21.1741 41.6299C21.3073 41.5893 21.4389 41.5486 21.5692 41.5094C27.4546 39.7329 30.2365 39.4281 34.1406 39.4281H37.698C38.1384 39.5065 38.5307 39.6385 38.8774 39.8113C39.9486 40.3395 40.5719 41.2524 40.7519 42.1901C40.8046 42.4615 40.8192 42.7358 40.7973 43.0029C40.6919 44.2916 39.6836 45.6705 37.1726 45.6705H34.4025C32.203 45.5298 30.8012 47.0711 30.5524 48.6764C30.3125 50.2249 31.1597 52.1495 33.5903 52.7199C33.6137 52.7257 33.6371 52.73 33.6605 52.7344L34.9204 52.9434L42.2138 54.1538L42.4844 54.1988C42.5166 54.2046 42.5488 54.2089 42.581 54.2104C43.1019 54.251 43.6054 54.3105 44.0926 54.3686C45.5984 54.5457 47.0207 54.714 48.73 54.3178L64.4857 50.6676C64.4901 50.6661 64.4959 50.6647 64.5018 50.6632C66.3426 50.2061 67.2777 51.0493 67.5381 51.9897C67.8147 52.9897 67.3787 54.2844 65.7676 54.7619L41.0519 62.0914C38.3037 62.9056 36.0282 62.5456 35.1781 62.3526C35.1591 62.3482 35.1401 62.3439 35.121 62.341L26.5297 60.8635C25.9328 60.762 25.3649 61.1582 25.261 61.7503C25.1572 62.3424 25.5581 62.9056 26.1552 63.0086L34.7187 64.4817C35.263 64.6036 36.2625 64.7749 37.5517 64.7749C38.7282 64.7749 40.1461 64.6326 41.6812 64.1769L66.3954 56.8474C69.2547 55.9999 70.2089 53.4149 69.6558 51.4134C69.1232 49.4903 67.1198 47.7733 63.9781 48.5484L48.2312 52.1971C47.4 52.3901 46.6274 52.409 45.8328 52.3553C47.1088 51.5208 48.2795 50.5105 49.317 49.3422C52.3812 45.8923 53.9074 41.4642 53.6133 36.8733C53.5694 36.1883 53.486 35.512 53.3631 34.8457C54.7182 35.1795 56.12 35.3508 57.5453 35.3508C57.9172 35.3512 58.2918 35.3396 58.6678 35.3164ZM10.3039 59.6978C10.3039 60.0671 9.98789 60.379 9.61361 60.379H2.88127C2.50934 60.379 2.19505 60.0671 2.19505 59.6978V43.3105C2.19505 42.9328 2.5029 42.6254 2.88127 42.6254H9.61361C9.98774 42.6254 10.3039 42.9391 10.3039 43.3105V59.6978ZM47.6695 47.9043C46.0876 49.6866 44.1487 51.0451 41.9918 51.91L34.062 50.5937C33.1049 50.3586 32.6045 49.7679 32.7216 49.0087C32.8196 48.3788 33.3407 47.778 34.2844 47.8448C34.3122 47.8462 34.3385 47.8477 34.3649 47.8477H37.173C40.9235 47.8477 42.7951 45.5022 42.9853 43.1785C43.1375 41.3366 42.277 39.312 40.3864 38.145C39.7338 37.37 38.7548 36.8765 37.6632 36.8765H34.9458C34.1818 36.8765 33.5585 36.2583 33.5585 35.4992C33.5585 34.7402 34.1818 34.1234 34.9458 34.1234H40.1274C40.7332 34.1234 41.2249 33.6357 41.2249 33.0349C41.2249 32.434 40.7333 31.9464 40.1274 31.9464H37.3917V30.1047C37.3917 29.5034 36.9004 29.0162 36.2942 29.0162C35.688 29.0162 35.1967 29.5035 35.1967 30.1047V31.9464H34.9458C32.9703 31.9464 31.3635 33.5399 31.3635 35.4994C31.3635 36.1539 31.5434 36.7693 31.8566 37.2961C28.8202 37.4282 26.0033 37.9086 21.2079 39.3441C20.8377 35.3673 22.0538 31.2525 24.9189 28.0261H24.9175C29.0719 23.3483 35.5281 21.8461 41.1414 23.7184C42.0941 26.4703 43.7622 29.0102 46.1007 31.0522C47.5596 32.3279 49.1912 33.3339 50.9356 34.0494C51.1931 35.0087 51.3584 35.9986 51.4228 37.0117C51.6805 41.0218 50.3474 44.8897 47.6695 47.9043Z" fill="#187CB6"/>
<path d="M58.9186 21.9786H53.7377C53.1315 21.9786 52.6402 22.4659 52.6402 23.0671C52.6402 23.6682 53.1315 24.1556 53.7377 24.1556H56.4689V25.9931C56.4689 26.5944 56.9602 27.0816 57.5664 27.0816C58.1726 27.0816 58.6639 26.5942 58.6639 25.9931V24.1556H58.9186C60.8941 24.1556 62.5009 22.5595 62.5009 20.5978C62.5009 18.6382 60.9014 17.0442 58.9352 17.0442H56.2223C55.4575 17.0442 54.8351 16.4267 54.8351 15.6677C54.8351 14.9086 55.4574 14.2912 56.2223 14.2912H61.4034C62.0096 14.2912 62.5009 13.8039 62.5009 13.2027C62.5009 12.6016 62.0096 12.1142 61.4034 12.1142H58.668V10.2767C58.668 9.67544 58.1767 9.18823 57.5705 9.18823C56.9643 9.18823 56.473 9.67559 56.473 10.2767V12.1142H56.2223C54.247 12.1142 52.6402 13.7084 52.6402 15.6678C52.6402 17.6274 54.2472 19.2214 56.2223 19.2214H58.9352C59.6782 19.2214 60.3059 19.8518 60.3059 20.5979C60.3059 21.3592 59.6836 21.9786 58.9186 21.9786Z" fill="#187CB6"/>
</svg>
