<svg width="101" height="92" viewBox="0 0 101 92" fill="none" xmlns="http://www.w3.org/2000/svg">
<g clip-path="url(#clip0)">
<path d="M101 0H0V92H101V0Z" fill="white"/>
<path d="M0 46V92H50.5H101V46V0H50.5H0V46ZM52.3815 10.6134C54.7931 10.6981 57.6666 11.1636 60.2323 11.8914C68.1173 14.1259 74.8734 18.9755 79.731 25.865C79.9961 26.2458 80.2185 26.6013 80.2185 26.6521C80.2185 26.7198 79.8336 26.7452 78.987 26.7452H77.7555L77.3621 26.195C76.276 24.7054 74.155 22.3695 72.761 21.1422L72.1624 20.6175L70.7 20.9814C68.0831 21.6162 65.201 22.1325 62.3275 22.4795C61.6776 22.5641 61.1473 22.6572 61.1473 22.6826C61.1473 22.7165 61.2671 23.1227 61.4124 23.5798C61.746 24.6716 62.2591 26.4997 62.2591 26.6351C62.2591 26.7198 61.994 26.7452 61.1901 26.7452H60.1296L59.9842 26.2543C59.9158 25.9919 59.7704 25.501 59.6849 25.1794C59.4113 24.2484 58.9922 22.9873 58.9238 22.9111C58.8896 22.8688 58.3251 22.8773 57.6752 22.9281C57.0338 22.9788 55.2122 23.0635 53.6386 23.1227C50.6197 23.2243 46.3693 23.1312 43.5301 22.8942C42.8031 22.835 42.1788 22.8096 42.1446 22.8434C42.0762 22.9111 41.4605 24.8155 41.1697 25.8903L40.9388 26.7452H39.8869C38.9205 26.7452 38.8264 26.7282 38.8264 26.5928C38.8264 26.4066 39.3139 24.6123 39.6816 23.4528C39.827 23.0127 39.9125 22.6234 39.8698 22.5895C39.8356 22.5641 39.408 22.488 38.9119 22.4372C36.5772 22.1748 33.1906 21.5569 30.5993 20.9306L29.0001 20.5413L28.5468 20.9222C27.1699 22.0902 24.955 24.4938 23.8175 26.0427L23.3044 26.7452H22.0472C21.346 26.7452 20.7815 26.7198 20.7815 26.6944C20.7815 26.5844 22.1499 24.7054 22.9196 23.7406C26.2036 19.6695 30.223 16.4703 34.978 14.1428C38.6041 12.3654 42.1446 11.3244 46.3095 10.7912C47.3614 10.6558 50.1494 10.5119 50.7993 10.5542C50.9618 10.5627 51.6802 10.5965 52.3815 10.6134ZM48.362 29.9698C49.6961 30.1306 50.4487 30.1645 54.032 30.1899L58.1541 30.2237V34.7941V39.356H54.4767H50.8079L50.7822 38.3658L50.7566 37.3671L50.2434 37.1639C48.7725 36.5884 46.797 36.2753 44.5991 36.2668C42.4354 36.2668 41.4605 36.453 40.5283 37.0708C39.5704 37.6887 39.4336 38.9498 40.229 39.7284C41.0585 40.5579 42.0762 40.8202 46.6088 41.3788C50.5257 41.8697 52.0394 42.1829 53.9379 42.9192C54.853 43.2747 56.0075 43.9433 56.7259 44.5443C57.7864 45.416 58.6587 46.8548 59.0606 48.3783C59.3599 49.5124 59.4455 51.696 59.2317 52.8556C58.8639 54.8361 58.1113 56.258 56.7345 57.5529C55.2464 58.9579 53.3307 59.8804 50.6881 60.4644C47.7719 61.1161 43.6412 61.2177 39.502 60.7522C38.0824 60.5998 37.2614 60.566 33.8491 60.5406L29.8467 60.5067V55.9787V51.4591H33.5241H37.2015V52.3901V53.3211L37.5351 53.4903C38.6212 54.032 40.8533 54.4298 43.2051 54.4806C47.2588 54.5822 49.0804 53.8712 49.0889 52.1785C49.0889 51.5183 48.9008 51.1628 48.3363 50.7735C47.5153 50.198 46.3608 49.9356 42.6749 49.4701C38.2449 48.903 36.4917 48.5052 34.5675 47.6081C31.4973 46.1693 29.9836 43.9772 29.6757 40.524C29.5047 38.6959 29.804 36.9862 30.5309 35.4966C32.1644 32.1535 35.9016 30.2322 41.6914 29.7582C42.8544 29.6651 46.8739 29.7921 48.362 29.9698ZM80.7316 29.919C84.5458 30.4861 87.5818 31.908 89.9336 34.227C92.7986 37.0624 94.184 40.7017 94.1754 45.3652C94.1754 47.5996 93.9274 49.2754 93.3373 51.0359C91.3276 57.0112 86.1194 60.5829 78.7903 61.0145C74.9504 61.2346 71.0421 60.4813 68.2456 58.9748C66.3555 57.9592 64.3458 56.1733 63.2597 54.5483C61.9427 52.5678 61.1302 50.2995 60.8052 47.6504C60.677 46.5925 60.7026 43.9179 60.848 42.8092C61.5493 37.5617 64.3886 33.5838 68.9554 31.4425C70.8625 30.5538 72.9235 30.0206 75.4721 29.7582C76.3273 29.6736 79.7909 29.7752 80.7316 29.919ZM27.6232 34.0662V37.8326H25.1431H22.663V45.4499V53.0672H25.1431H27.6232V56.8335V60.5998L17.7712 60.5829L7.91067 60.5575L7.88501 56.8081L7.86791 53.0672H10.348H12.8281V45.4499V37.8326L10.3737 37.8156L7.91067 37.7902L7.88501 34.0408L7.86791 30.2999H17.7456H27.6232V34.0662ZM23.6037 64.5523C24.6898 66.0758 27.0673 68.6911 28.41 69.8421L28.8975 70.2569L30.2914 69.9183C32.9682 69.2666 35.6194 68.7842 38.3561 68.4541C39.2027 68.3525 39.904 68.2594 39.9211 68.251C39.9382 68.2425 39.827 67.8616 39.6816 67.3961C39.331 66.3043 38.8264 64.4931 38.8264 64.3069C38.8264 64.1715 38.929 64.1546 39.8869 64.1546H40.9388L41.1697 64.9755C41.298 65.4326 41.5631 66.3128 41.7512 66.9391L42.1104 68.0648L42.5893 68.014C45.3517 67.7347 52.5525 67.6585 55.9306 67.8786C56.991 67.9463 58.1028 68.0055 58.4021 68.0055H58.958L59.2488 67.1168C59.4113 66.6259 59.6678 65.7711 59.8218 65.2125L60.104 64.1969L61.1815 64.1715C61.8999 64.1546 62.2591 64.1799 62.2591 64.2392C62.2591 64.3831 61.5151 67.0237 61.2842 67.6839L61.0704 68.2933L61.344 68.3356C61.498 68.361 62.0966 68.4456 62.6867 68.5133C65.1925 68.8265 68.3054 69.4105 70.6658 70.0029C71.8887 70.3161 72.0341 70.333 72.2052 70.223C72.6157 69.9522 74.4629 68.1325 75.3523 67.1422C75.8655 66.5582 76.618 65.6526 77.02 65.1194L77.764 64.1546H78.987C79.6626 64.1546 80.2185 64.1884 80.2185 64.2223C80.2185 64.3323 79.0896 65.9404 78.4311 66.7783C72.5301 74.3025 63.8156 79.1098 54.1774 80.1678C52.5867 80.3371 47.9857 80.3117 46.4805 80.1255C38.6554 79.1268 32.0617 76.0799 26.3404 70.8155C24.3734 69.0042 21.9104 66.0758 20.8329 64.2561C20.7815 64.1799 21.0467 64.1546 22.0472 64.1546H23.3215L23.6037 64.5523Z" fill="#D31C33"/>
<path d="M49.3369 12.721C47.3614 13.3896 45.4799 15.5055 43.7524 19.001C43.359 19.7881 43.0169 20.5075 42.9913 20.5837C42.9485 20.7022 43.0169 20.736 43.3847 20.7784C45.5056 21.0069 51.0644 21.1254 54.0919 20.9984C57.7265 20.8461 58.0686 20.8207 58.0686 20.6599C58.0686 20.4483 56.7858 17.9007 56.2384 17.0374C55.1267 15.26 54.0235 14.0244 52.8946 13.288C51.7058 12.5263 50.5 12.3316 49.3369 12.721Z" fill="#D31C33"/>
<path d="M44.5564 13.051C39.9725 14.0074 36.2267 15.5393 32.3098 18.0784C31.352 18.6963 31.0441 18.9586 31.2836 18.9586C31.3178 18.9586 31.8651 19.0771 32.498 19.2125C34.5676 19.678 38.8864 20.3805 40.3915 20.499L40.7165 20.5244L41.0757 19.678C42.1191 17.2659 43.744 14.6337 45.061 13.2626C45.3518 12.9579 45.3518 12.9494 45.1551 12.9579C45.0353 12.9664 44.7702 13.0002 44.5564 13.051Z" fill="#D31C33"/>
<path d="M56.059 13.3049C56.649 13.982 57.624 15.3108 58.12 16.0979C58.7272 17.0712 59.6423 18.8486 60.0357 19.8389L60.335 20.5752L60.8909 20.5244C63.5848 20.262 69.956 19.1533 69.956 18.9417C69.956 18.8994 69.4087 18.5101 68.7416 18.0784C65.0985 15.7001 61.0619 14.0074 57.051 13.1695C55.6741 12.8817 55.6827 12.8817 56.059 13.3049Z" fill="#D31C33"/>
<path d="M76.293 36.9099C73.4451 37.3415 71.786 39.3474 71.2729 42.9698C71.0762 44.3833 71.1446 47.4217 71.4012 48.6066C72.2136 52.3137 74.3089 54.0488 77.7725 53.888C79.577 53.8033 80.5605 53.414 81.6295 52.3476C83.1175 50.8834 83.7162 48.8606 83.7247 45.3651C83.7247 42.4959 83.3057 40.6762 82.2965 39.1697C81.5953 38.1117 80.4578 37.333 79.1921 37.0284C78.4823 36.8675 77.0028 36.7998 76.293 36.9099Z" fill="#D31C33"/>
<path d="M46.8653 69.876C44.5563 70.003 42.9741 70.0961 42.9485 70.1215C42.8801 70.1892 43.9576 72.3813 44.5221 73.3461C45.7365 75.4113 46.9337 76.7993 48.1652 77.5949C48.9691 78.1112 49.4566 78.2804 50.2519 78.3482C51.0302 78.4074 51.5946 78.2804 52.4669 77.8403C53.4504 77.341 54.8701 75.9275 55.8364 74.4803C56.4779 73.5239 58.0685 70.5193 58.0685 70.2654C58.0685 70.1299 57.8889 70.1045 56.2298 69.9945C54.8273 69.9014 47.9942 69.8168 46.8653 69.876Z" fill="#D31C33"/>
<path d="M39.8099 70.3924C39.6731 70.4093 38.8521 70.5193 37.9883 70.6378C35.9358 70.9171 34.328 71.188 32.5235 71.5688C31.3776 71.8143 31.0697 71.9074 31.1381 71.992C31.292 72.1782 33.5412 73.6086 34.6701 74.2264C37.5949 75.843 40.7763 77.0364 43.9577 77.6965C44.6162 77.8404 45.1977 77.9504 45.249 77.9504C45.3003 77.9504 45.1378 77.7135 44.8813 77.4172C43.4959 75.8515 42.1874 73.7186 41.1269 71.3065L40.7164 70.3755L40.3914 70.367C40.2119 70.3585 39.9553 70.367 39.8099 70.3924Z" fill="#D31C33"/>
<path d="M60.1296 70.8663C59.8132 71.6618 58.7527 73.7439 58.1968 74.6495C57.5982 75.6313 56.8713 76.63 56.2384 77.3494C55.9733 77.6541 55.7766 77.908 55.7937 77.9334C55.8878 78.0265 58.7955 77.3325 60.352 76.8416C63.1485 75.9614 66.672 74.2348 69.2205 72.4997L69.9731 71.9835L69.5198 71.8819C67.2278 71.3571 64.4826 70.8663 62.3018 70.587C61.5493 70.4939 60.7967 70.4008 60.6342 70.3754C60.3349 70.3415 60.3349 70.3415 60.1296 70.8663Z" fill="#D31C33"/>
</g>
<defs>
<clipPath id="clip0">
<rect width="101" height="92" fill="white"/>
</clipPath>
</defs>
</svg>
